<?xml version="1.0" encoding="UTF-8"?>
<svg id="_圖層_1" data-name="圖層 1" xmlns="http://www.w3.org/2000/svg" viewBox="0 0 1080 1080">
  <defs>
    <style>
      .cls-1 {
        fill: #fff;
      }
    </style>
  </defs>
  <path class="cls-1" d="M629.62,514.72c-5.47,0-10.75-3.01-13.39-8.22-3-5.93-6.02-11.85-9.05-17.78-26.37-51.67-53.64-105.1-68.64-164.45-.01-.05-.03-.11-.04-.17-9.27-38.48-17.93-83.49-3.42-130.7.04-.14.09-.28.14-.42,23.49-69.07,70.62-102.7,144.02-102.7,1.17,0,2.34,0,3.52.03,42.87.62,77.95,20.92,96.56,55.78l2.34,2.71c1.05,1.22,1.9,2.6,2.51,4.09.78,1.91,1.58,3.79,2.38,5.68,4.53,10.67,9.67,22.76,10.86,37.26,1.17,14.17,1.43,29.69-4.53,47.08-15.5,46.82-49.13,75.77-90,77.43-.12,0-.24,0-.36.01-19.18.28-36.81-7.53-52.38-23.33-.07-.07-.13-.14-.2-.21-20.17-21.26-27.33-49.95-19.15-76.74.15-.48.31-.95.51-1.41.7-1.67,1.55-3.31,2.3-4.76.46-.88,1.03-1.98,1.24-2.5,5.03-12.04,16.2-21.62,30.64-26.26,7.88-2.54,16.33,1.8,18.87,9.69,2.54,7.89-1.8,16.33-9.69,18.87-5.8,1.87-10.57,5.51-12.14,9.27-.7,1.67-1.55,3.31-2.3,4.75-.33.63-.72,1.38-.99,1.94-4.56,16.04.03,33.31,12.38,46.39,9.5,9.61,19.26,14.29,29.81,14.29.14,0,.28,0,.42,0,40.07-1.76,57.1-40.39,62.57-56.94.02-.06.04-.12.06-.18,3.96-11.52,4.08-22.3,3.03-34.94-.8-9.69-4.41-18.18-8.58-28.01-.53-1.24-1.06-2.49-1.58-3.74l-1.89-2.19c-.78-.9-1.45-1.89-1.99-2.95-13.15-25.66-39.08-40.65-71.15-41.11-1.06-.01-2.13-.02-3.18-.02-60.43,0-96.11,25.44-115.46,82.15-11,35.97-6.65,70.52,3.95,114.56,14.18,56.04,40.66,107.92,66.26,158.09,3.04,5.95,6.07,11.9,9.09,17.86,3.74,7.39.79,16.42-6.6,20.16-2.17,1.1-4.49,1.62-6.77,1.62Z"/>
  <path class="cls-1" d="M525.13,592.07c-2.64,0-5.32-.7-7.75-2.17-34.81-21.05-71.84-43.63-108.21-67.93-40.26-26.9-71.4-50.31-98.01-73.68-32.21-28.29-54.9-53.9-71.42-80.58-18.83-30.42-27.88-62.08-26.9-94.11.71-22.98,4.61-43.9,11.59-62.19,8.62-22.57,21.73-40.47,38.98-53.21,28.05-20.72,66.64-25.57,103.25-12.97,39.02,13.43,69.27,41.87,80.93,76.08,10.55,30.96,6.75,65.26-10.17,91.75-8.78,13.76-20.91,23.92-35.06,29.38-14.94,5.76-31.08,5.87-46.68.31-30.1-10.73-56.77-42.01-49.31-75.8,1.85-8.38,5.94-16.46,11.84-23.36,5.38-6.3,14.85-7.04,21.15-1.66s7.04,14.85,1.66,21.15c-2.71,3.17-4.56,6.75-5.36,10.34-3.72,16.83,12.56,34.83,30.09,41.07,17.66,6.3,35.43-.44,46.38-17.58,11.87-18.6,14.58-43.86,7.06-65.93-8.69-25.5-31.98-46.96-62.29-57.39-27.27-9.38-55.55-6.12-75.66,8.73-31.67,23.39-37.66,67.8-38.41,92.19-.8,26.03,6.74,52.07,22.42,77.39,14.91,24.09,35.79,47.55,65.71,73.83,25.59,22.48,55.74,45.13,94.88,71.28,35.84,23.95,72.54,46.33,107.06,67.2,7.09,4.29,9.36,13.51,5.07,20.6-2.82,4.66-7.77,7.24-12.85,7.24Z"/>
  <path class="cls-1" d="M230.35,796.03c-16.21,0-32.33-3.39-47.23-10.09-28.11-12.63-51.93-36.92-65.35-66.65-12.39-27.44-14.07-57.81-4.74-85.54,9.32-27.68,29.58-52.29,57.04-69.28,28.79-17.81,63.27-27.56,94.61-26.77,24.3.62,50.15,7.93,76.83,21.72,23.75,12.28,46.97,28.59,73.06,51.32,6.25,5.44,6.9,14.92,1.45,21.16-5.44,6.24-14.92,6.9-21.16,1.45-24.23-21.12-45.56-36.14-67.12-47.29-22.62-11.69-44.09-17.87-63.82-18.38-25.65-.64-54.11,7.47-78.06,22.29-21.53,13.32-37.3,32.27-44.39,53.34-6.91,20.52-5.61,43.12,3.65,63.62,10.45,23.14,28.79,41.96,50.31,51.63,18.35,8.25,39.22,9.71,58.76,4.1,17.59-5.04,32.13-15.1,39.88-27.59,8.63-13.9,6.94-32.59-4.3-47.62-10.35-13.83-28.83-24.59-44.12-18.4-3.33,1.35-6.57,3.62-9.38,6.56-5.71,6-15.21,6.23-21.21.51-6-5.71-6.23-15.21-.51-21.21,5.8-6.09,12.47-10.69,19.82-13.67,30.72-12.46,62.7,5.89,79.41,28.22,18.7,24.98,20.96,56.93,5.78,81.41-11.8,19.01-32.08,33.44-57.1,40.62-10.52,3.02-21.32,4.51-32.09,4.51Z"/>
  <path class="cls-1" d="M974.39,1061.08c-2.04,0-4.09-.42-6.03-1.27l-590.03-259.22c-4.72-2.07-8.04-6.42-8.8-11.51-.76-5.09,1.14-10.22,5.04-13.58l420.76-362.61c3.9-3.36,9.26-4.49,14.18-2.98,4.92,1.51,8.73,5.43,10.09,10.4l169.26,621.83c1.52,5.58-.3,11.53-4.68,15.3-2.77,2.39-6.26,3.64-9.79,3.64ZM412.18,782.69l539.49,237.02-154.77-568.58-384.73,331.56Z"/>
</svg>