<?xml version="1.0" encoding="UTF-8"?>
<svg id="_圖層_1" data-name="圖層 1" xmlns="http://www.w3.org/2000/svg" xmlns:xlink="http://www.w3.org/1999/xlink" viewBox="0 0 1080 1080">
  <defs>
    <style>
      .cls-1 {
        fill: #fff;
      }

      .cls-2 {
        fill: none;
      }

      .cls-3 {
        clip-path: url(#clippath-1);
      }

      .cls-4 {
        clip-path: url(#clippath);
      }
    </style>
    <clipPath id="clippath">
      <path class="cls-2" d="M741.12,114.18c-17.07,55.76-88.15,203.64-165.89,263.59-77.75,59.96-120.38,161.46-135.43,236.24-15.05,74.77-20.06,423.06-20.06,423.06h571.81s45.14-378.13,50.16-487.18-152.46-357.25-169.99-404.47c-15.4-41.47-119.38-67.84-130.59-31.23Z"/>
    </clipPath>
    <clipPath id="clippath-1">
      <path class="cls-2" d="M364.28,446.72c41.74,33.97,37.18,89.35,77.42,172.91,22.1,45.89,55.64,168.7,55.64,296.6,0,15.71-94.91,31.39-177.51,31.39-64.57,0-258.26,0-258.26,0,0,0,116.45-169.62,26.17-323.33-37.52-63.88,84.47-253.1,105.99-226.62,103.98,127.9,109.94-.29,170.55,49.04Z"/>
    </clipPath>
  </defs>
  <g>
    <g class="cls-4">
      <g>
        <path class="cls-1" d="M341,786.37c-1.8,0-3.59-.69-4.96-2.06-2.73-2.74-2.72-7.17.02-9.9,9.15-9.1,17.03-19.27,25.38-30.04,5.54-7.15,11.28-14.55,17.5-21.73,116.53-143.22,231.28-285.75,342.25-423.59,65.55-81.42,133.33-165.6,200.68-248.95,2.43-3.01,6.84-3.47,9.84-1.04,3.01,2.43,3.47,6.84,1.04,9.84-67.34,83.33-135.12,167.52-200.67,248.93-111.01,137.88-225.8,280.46-342.37,423.73-.05.06-.09.11-.14.17-6,6.92-11.63,14.19-17.08,21.22-8.25,10.65-16.79,21.65-26.57,31.39-1.37,1.36-3.15,2.04-4.94,2.04Z"/>
        <path class="cls-1" d="M340.83,935.24c-1.55,0-3.1-.51-4.4-1.56-3.01-2.43-3.47-6.84-1.04-9.84,197.62-244.3,395.02-488.24,586.7-725.07,2.43-3.01,6.84-3.47,9.85-1.04,3,2.43,3.47,6.84,1.04,9.84-191.68,236.82-389.07,480.77-586.69,725.07-1.38,1.71-3.41,2.6-5.45,2.6Z"/>
        <path class="cls-1" d="M340.92,1084.27c-1.56,0-3.13-.52-4.43-1.58-2.99-2.45-3.43-6.86-.99-9.85,128.55-157.12,258.42-318.39,384-474.36,100.88-125.28,205.19-254.82,308.13-381.35,2.44-3,6.85-3.45,9.85-1.01,3,2.44,3.45,6.85,1.01,9.85-102.92,126.5-207.22,256.03-308.09,381.3-125.6,155.98-255.49,317.28-384.07,474.44-1.38,1.69-3.39,2.57-5.42,2.57Z"/>
        <path class="cls-1" d="M464.94,1079.18c-1.55,0-3.11-.51-4.41-1.57-3-2.44-3.46-6.85-1.02-9.85,90.93-111.9,183.24-226.25,272.51-336.83,107.71-133.42,219.08-271.38,329.2-406.5,2.44-3,6.85-3.45,9.85-1,3,2.44,3.45,6.85,1,9.85-110.09,135.09-221.46,273.04-329.16,406.45-89.28,110.59-181.59,224.94-272.53,336.86-1.38,1.7-3.4,2.59-5.44,2.59Z"/>
        <path class="cls-1" d="M585.74,1078.74c-1.54,0-3.1-.51-4.39-1.55-3.01-2.43-3.48-6.84-1.05-9.84,30.83-38.2,61.65-76.41,92.46-114.61,127.17-157.67,258.66-320.7,388.38-479.44,2.45-2.99,6.85-3.44,9.85-.99,2.99,2.45,3.44,6.86.99,9.85-129.7,158.7-261.18,321.72-388.33,479.37-30.82,38.21-61.64,76.42-92.47,114.62-1.38,1.71-3.41,2.6-5.45,2.6Z"/>
        <path class="cls-1" d="M706.08,1078.77c-1.55,0-3.11-.51-4.41-1.57-3-2.44-3.46-6.85-1.02-9.85,111.91-137.75,229.87-283.46,360.62-445.45,2.43-3.01,6.83-3.48,9.84-1.05,3.01,2.43,3.48,6.83,1.05,9.84-130.77,162-248.74,307.72-360.65,445.49-1.38,1.7-3.4,2.59-5.44,2.59Z"/>
        <path class="cls-1" d="M826.4,1079.19c-1.55,0-3.1-.51-4.4-1.56-3-2.43-3.47-6.84-1.04-9.84,70.22-86.74,153.67-189.85,240.11-296.87,2.43-3.01,6.84-3.48,9.84-1.05,3.01,2.43,3.48,6.84,1.05,9.84-86.45,107.02-169.9,210.13-240.12,296.88-1.38,1.71-3.41,2.6-5.44,2.6Z"/>
      </g>
    </g>
    <path class="cls-1" d="M991.54,1052.07H419.73c-4.02,0-7.86-1.61-10.68-4.47-2.82-2.86-4.37-6.73-4.32-10.75.21-14.28,5.21-350.53,20.36-425.8,8.64-42.91,24.84-88.27,45.64-127.71,25.89-49.11,57.97-88.63,95.33-117.44,70.73-54.55,142.22-195.72,160.71-256.1h0c3.07-10.02,13.22-26.98,46.73-27.96,37.44-1.09,98.24,20.58,112.26,58.36,4.22,11.38,19.08,38.76,36.29,70.47,55.16,101.65,138.52,255.26,134.63,339.91-4.98,108.35-48.4,472.81-50.25,488.27-.9,7.54-7.3,13.22-14.89,13.22ZM434.98,1022.07h543.23c8.01-67.87,44.1-377.11,48.5-472.87,3.51-76.3-80.71-231.5-131.02-324.22-19.21-35.39-33.08-60.97-38.05-74.34-7.22-19.45-50.81-39.77-83.27-38.81-10.33.3-17.75,2.95-18.92,6.75-8.61,28.12-30.98,80.25-61.54,133.32-25.19,43.73-64.63,103.13-109.54,137.76-73.43,56.63-115.24,154.56-129.88,227.32-12.83,63.77-18.34,337.31-19.52,405.1Z"/>
  </g>
  <g>
    <g class="cls-3">
      <g>
        <path class="cls-1" d="M-107.58,846.64c-1.8,0-3.59-.69-4.96-2.06-2.73-2.74-2.72-7.17.02-9.9,9.15-9.1,17.03-19.27,25.38-30.04,5.55-7.15,11.28-14.55,17.5-21.74,116.55-143.25,231.32-285.8,342.32-423.67,65.53-81.39,133.29-165.55,200.61-248.86,2.43-3.01,6.84-3.47,9.84-1.04,3.01,2.43,3.47,6.84,1.04,9.84-67.32,83.3-135.07,167.46-200.6,248.84C172.56,505.92,57.75,648.52-58.84,791.82c-.05.06-.09.11-.14.17-6,6.92-11.64,14.19-17.09,21.23-8.25,10.64-16.78,21.65-26.57,31.38-1.37,1.36-3.15,2.04-4.94,2.04Z"/>
        <path class="cls-1" d="M-107.75,995.51c-1.55,0-3.1-.51-4.4-1.56-3.01-2.43-3.47-6.84-1.04-9.84C83.69,740.74,281.08,496.79,473.51,259.04c2.43-3,6.84-3.47,9.85-1.04,3,2.43,3.47,6.84,1.04,9.84C291.96,505.6,94.57,749.54-102.3,992.91c-1.38,1.71-3.41,2.6-5.45,2.6Z"/>
        <path class="cls-1" d="M430.87,478.44c-1.54,0-3.1-.51-4.39-1.55-3.01-2.43-3.48-6.84-1.05-9.84,19.97-24.74,39.96-49.48,59.97-74.19,20.5-25.34,40.62-50.16,59.8-73.79,11.28-13.89,22.57-27.78,33.86-41.67,2.44-3,6.85-3.45,9.85-1.01,3,2.44,3.45,6.85,1.01,9.85-11.29,13.88-22.58,27.76-33.85,41.66-19.17,23.62-39.29,48.44-59.79,73.77-20,24.71-39.98,49.44-59.96,74.18-1.38,1.71-3.41,2.6-5.45,2.6Z"/>
        <path class="cls-1" d="M-107.66,1144.54c-1.51,0-3.04-.49-4.32-1.5-3.04-2.39-3.57-6.79-1.17-9.83,11.39-14.49,22.62-28.24,34.52-42.79,10.45-12.79,21.25-26.01,32.16-39.77.17-.21.34-.41.53-.6.99-.99,2.09-1.73,3.07-2.37.23-.16.55-.36.78-.53,14.47-19.07,28.52-36.47,42.12-53.3,9.87-12.22,20.08-24.85,30.47-38.16.18-.22.37-.44.57-.64.99-.99,2.09-1.73,3.07-2.37.24-.16.56-.37.79-.53,26.21-34.2,51.07-64.87,77.37-97.32,9.5-11.73,19.33-23.85,29.27-36.2.03-.04.06-.08.09-.12,17.93-21.35,34.16-41.66,51.34-63.16l8.56-10.71c13.3-16.43,26.35-32.42,38.96-47.89,36.39-44.6,70.75-86.73,106.94-133.99.19-.24.39-.48.61-.69.99-.99,2.09-1.73,3.07-2.37.23-.16.55-.37.78-.53,10.01-13.15,20.11-25.58,29.87-37.62,8.62-10.62,17.54-21.6,26.12-32.76,2.36-3.06,6.75-3.63,9.82-1.28,3.06,2.36,3.64,6.75,1.28,9.82-8.7,11.3-17.67,22.35-26.35,33.04-9.85,12.14-20.04,24.69-30.07,37.88-.19.25-.4.49-.62.71-.99.99-2.09,1.73-3.07,2.37-.24.16-.56.37-.79.53-36.15,47.2-70.45,89.23-106.75,133.73-12.61,15.46-25.65,31.44-38.91,47.82l-8.53,10.67c-17.22,21.56-33.48,41.91-51.51,63.37-9.94,12.35-19.76,24.47-29.25,36.19-26.4,32.57-51.33,63.33-77.6,97.62-.19.24-.39.48-.61.69-.99.99-2.09,1.73-3.07,2.37-.24.16-.58.38-.81.55-10.32,13.19-20.41,25.69-30.18,37.78-13.68,16.93-27.82,34.44-42.32,53.58-.19.25-.4.5-.63.72-.99.99-2.09,1.73-3.07,2.37-.25.17-.59.39-.82.56-10.83,13.65-21.52,26.73-31.86,39.39-11.85,14.51-23.04,28.21-34.36,42.59-1.38,1.76-3.43,2.67-5.51,2.67Z"/>
        <path class="cls-1" d="M551.26,478.23c-1.58,0-3.17-.53-4.48-1.63-2.97-2.48-3.37-6.89-.89-9.86,13.19-15.8,26.32-32.1,39.02-47.85,9.09-11.28,18.49-22.95,27.74-34.21,2.45-2.99,6.86-3.42,9.85-.97,2.99,2.45,3.42,6.86.97,9.85-9.2,11.21-18.58,22.85-27.66,34.11-12.74,15.8-25.91,32.15-39.17,48.04-1.38,1.66-3.37,2.51-5.38,2.51Z"/>
        <path class="cls-1" d="M16.36,1139.44c-1.55,0-3.11-.51-4.41-1.57-3-2.44-3.46-6.85-1.02-9.85,24.4-30.03,49.81-61.36,77.68-95.76,25.9-31.97,51.77-63.96,77.63-95.96,25.81-31.93,51.61-63.87,77.4-95.82l77.42-95.89c25.81-31.97,51.63-63.94,77.46-95.9l9.63-11.92c2.43-3.01,6.84-3.47,9.84-1.04s3.47,6.84,1.04,9.84l-9.63,11.92c-25.83,31.96-51.65,63.93-77.46,95.9l-77.42,95.89c-25.79,31.95-51.59,63.89-77.4,95.82-25.87,32-51.74,63.99-77.64,95.97-27.88,34.41-53.29,65.74-77.7,95.78-1.38,1.7-3.4,2.59-5.44,2.59Z"/>
        <path class="cls-1" d="M137.16,1139.01c-1.54,0-3.1-.51-4.39-1.55-3.01-2.43-3.48-6.83-1.05-9.84,17.99-22.28,35.96-44.57,53.94-66.85l53.93-66.86c17.97-22.28,35.95-44.57,53.92-66.85,17.97-22.27,35.95-44.54,53.93-66.81,17.97-22.25,35.95-44.5,53.94-66.74l6.58-8.13c2.43-3.01,6.84-3.47,9.84-1.04,3.01,2.43,3.47,6.84,1.04,9.84l-6.58,8.13c-17.99,22.24-35.96,44.48-53.93,66.73-17.98,22.26-35.95,44.53-53.92,66.8-17.98,22.28-35.95,44.56-53.92,66.84l-53.93,66.86c-17.98,22.29-35.96,44.57-53.95,66.86-1.38,1.71-3.41,2.6-5.45,2.6Z"/>
        <path class="cls-1" d="M257.5,1139.04c-1.55,0-3.11-.51-4.41-1.57-3-2.44-3.46-6.85-1.02-9.85,20.26-24.94,40.52-49.9,60.77-74.85,20.25-24.96,40.5-49.93,60.74-74.91,11.44-14.12,22.88-28.24,34.32-42.36,2.43-3,6.84-3.47,9.84-1.03,3,2.43,3.47,6.84,1.03,9.85-11.44,14.12-22.88,28.25-34.32,42.37-20.24,24.98-40.49,49.95-60.74,74.92-20.25,24.96-40.51,49.91-60.77,74.86-1.38,1.7-3.4,2.59-5.44,2.59Z"/>
        <path class="cls-1" d="M377.82,1139.46c-1.55,0-3.1-.51-4.4-1.56-3.01-2.43-3.47-6.84-1.04-9.85l32.08-39.64c24.04-29.7,47.86-59.13,72.22-89.23,2.43-3.01,6.84-3.47,9.84-1.04,3,2.43,3.47,6.84,1.04,9.84-24.36,30.11-48.18,59.53-72.22,89.24l-32.08,39.64c-1.38,1.71-3.41,2.6-5.45,2.6Z"/>
      </g>
    </g>
    <path class="cls-1" d="M319.83,962.62H61.57c-5.57,0-10.68-3.08-13.27-8.01-2.59-4.93-2.24-10.89.91-15.48.27-.4,28.29-41.77,45.15-100.56,22.17-77.32,15.59-146.86-19.54-206.68-22.32-38,1.44-101.7,17.58-136.29,22.44-48.06,53.89-92.59,76.49-108.27,21.77-15.11,34.22-1.92,36.5.88,25.29,31.1,46.43,48.76,62.84,52.49,11.43,2.59,19.73-1.62,32.32-8.73,17.3-9.76,40.99-23.12,73.22,3.11,28.32,23.05,37.6,53.4,49.35,91.83,4.4,14.39,8.95,29.26,15.05,45.78.61,1.66.93,3.42.93,5.19v.63c0,1.07-.11,2.11-.32,3.12v358.66c0,7.46-5.49,13.79-12.88,14.85-33.78,4.82-71.44,7.48-106.05,7.48ZM87.97,932.62h231.86c28.43,0,60.15-1.97,88.93-5.48v-347.49c-5.79-16-10.31-30.81-14.34-43.97-10.66-34.86-18.36-60.05-39.6-77.33-16.37-13.32-23.63-9.22-39.54-.25-13.54,7.64-30.39,17.14-53.7,11.85-22.73-5.16-46.83-23.65-75.53-58.03-5.38,3.77-16.09,13.67-31.09,34.97-16.77,23.81-32.61,52.96-43.44,79.98-16.4,40.88-20.35,73.62-10.83,89.83,21.84,37.18,33.97,78.31,36.05,122.25,1.65,34.84-2.99,71.45-13.8,108.82-10.45,36.13-24.55,65.76-34.95,84.85Z"/>
  </g>
</svg>