<?xml version="1.0" encoding="UTF-8"?>
<svg id="_圖層_1" data-name="圖層 1" xmlns="http://www.w3.org/2000/svg" viewBox="0 0 1080 1080">
  <defs>
    <style>
      .cls-1 {
        fill: #fff;
      }
    </style>
  </defs>
  <path class="cls-1" d="M545.09,765.69c-48.75,0-96.04-9.55-140.58-28.39-43.01-18.19-81.63-44.23-114.79-77.39-33.16-33.16-59.2-71.78-77.39-114.79-18.84-44.53-28.39-91.83-28.39-140.58s9.55-96.04,28.39-140.58c18.19-43.01,44.23-81.63,77.39-114.79,33.16-33.16,71.78-59.2,114.79-77.39,44.53-18.84,91.83-28.39,140.58-28.39s96.04,9.55,140.58,28.39c43.01,18.19,81.63,44.23,114.79,77.39,33.16,33.16,59.2,71.78,77.39,114.79,18.84,44.53,28.39,91.83,28.39,140.58s-9.55,96.04-28.39,140.58c-18.19,43.01-44.23,81.63-77.39,114.79s-71.78,59.2-114.79,77.39c-44.53,18.84-91.83,28.39-140.58,28.39ZM545.09,73.41c-182.59,0-331.14,148.55-331.14,331.14s148.55,331.14,331.14,331.14,331.14-148.55,331.14-331.14S727.69,73.41,545.09,73.41Z"/>
  <g>
    <path class="cls-1" d="M776.53,1052.62c-.2,0-.4,0-.61-.01-5.64-.23-10.67-3.6-13.03-8.72l-137.77-299.83c-1.83-3.99-1.83-8.58.02-12.56,1.84-3.98,5.34-6.96,9.56-8.14,64.11-17.98,120.79-54.58,163.91-105.84,3.07-3.65,7.7-5.61,12.45-5.31,4.76.31,9.09,2.86,11.66,6.88l186.03,290.43c3.04,4.75,3.16,10.81.31,15.67-2.85,4.87-8.2,7.73-13.83,7.39l-138-8.16-67.64,120.56c-2.66,4.74-7.67,7.66-13.08,7.66ZM659.54,747.09l118.31,257.49,57.82-103.06c2.81-5.01,8.23-7.97,13.97-7.63l117.96,6.98-159.47-248.95c-41.09,43.74-91.89,76.28-148.6,95.18Z"/>
    <path class="cls-1" d="M303.47,1052.62c-5.41,0-10.42-2.92-13.08-7.66l-67.64-120.56-138,8.16c-5.65.34-10.98-2.52-13.83-7.39-2.85-4.87-2.73-10.92.31-15.67l190.5-297.41c2.61-4.07,7.02-6.64,11.85-6.89,4.84-.26,9.49,1.84,12.5,5.62,41.7,52.27,97.31,90.31,160.8,109.99,4.12,1.28,7.5,4.27,9.26,8.21,1.76,3.94,1.73,8.45-.07,12.38l-138.98,302.48c-2.36,5.13-7.39,8.5-13.03,8.73-.2,0-.41.01-.61.01ZM231.24,893.87c5.4,0,10.41,2.91,13.08,7.66l57.82,103.06,119.72-260.55c-56.07-20.31-105.91-54.04-145.82-98.66l-163.65,255.49,117.96-6.98c.3-.02.59-.03.89-.03Z"/>
  </g>
  <path class="cls-1" d="M667.51,581.71c-3.09,0-6.19-.96-8.82-2.86l-113.6-82.54-113.6,82.54c-5.26,3.82-12.38,3.82-17.63,0-5.26-3.82-7.46-10.59-5.45-16.77l43.39-133.54-113.6-82.54c-5.26-3.82-7.46-10.59-5.45-16.77,2.01-6.18,7.77-10.36,14.27-10.36h140.42l43.39-133.54c2.01-6.18,7.77-10.37,14.27-10.37s12.26,4.18,14.27,10.36l43.39,133.54h140.42c6.5,0,12.26,4.18,14.27,10.36,2.01,6.18-.19,12.95-5.45,16.77l-113.6,82.54,43.39,133.54c2.01,6.18-.19,12.95-5.45,16.77-2.63,1.91-5.72,2.87-8.82,2.87ZM545.09,462.77c3.09,0,6.19.96,8.82,2.86l85.07,61.81-32.49-100c-2.01-6.18.19-12.95,5.45-16.77l85.07-61.81h-105.15c-6.5,0-12.26-4.18-14.27-10.37l-32.49-100-32.49,100c-2.01,6.18-7.77,10.37-14.27,10.37h-105.15l85.07,61.81c5.26,3.82,7.46,10.59,5.45,16.77l-32.49,100,85.07-61.81c2.63-1.91,5.72-2.86,8.82-2.86Z"/>
</svg>