<?xml version="1.0" encoding="UTF-8"?>
<svg id="_圖層_1" data-name="圖層 1" xmlns="http://www.w3.org/2000/svg" viewBox="0 0 1080 1080">
  <defs>
    <style>
      .cls-1 {
        fill: #fff;
      }
    </style>
  </defs>
  <path class="cls-1" d="M952.02,986.15H138.17c-28.13,0-51.02-22.89-51.02-51.02V372.1c0-28.13,22.89-51.02,51.02-51.02h813.85c28.13,0,51.02,22.89,51.02,51.02v563.04c0,28.13-22.89,51.02-51.02,51.02ZM138.17,351.08c-11.59,0-21.02,9.43-21.02,21.02v563.04c0,11.59,9.43,21.02,21.02,21.02h813.85c11.59,0,21.02-9.43,21.02-21.02V372.1c0-11.59-9.43-21.02-21.02-21.02H138.17Z"/>
  <path class="cls-1" d="M714.94,351.08c-8.28,0-15-6.72-15-15v-140.38c0-2.72-7.37-9.37-21.02-9.37h-267.65c-13.65,0-21.02,6.65-21.02,9.37v140.38c0,8.28-6.72,15-15,15s-15-6.72-15-15v-140.38c0-22.08,22.41-39.37,51.02-39.37h267.65c28.61,0,51.02,17.29,51.02,39.37v140.38c0,8.28-6.72,15-15,15Z"/>
  <path class="cls-1" d="M545.09,651.31c-28.93,0-52.46-23.53-52.46-52.46s23.53-52.46,52.46-52.46,52.46,23.53,52.46,52.46-23.53,52.46-52.46,52.46ZM545.09,566.38c-17.9,0-32.46,14.56-32.46,32.46s14.56,32.46,32.46,32.46,32.46-14.56,32.46-32.46-14.56-32.46-32.46-32.46Z"/>
</svg>