<?xml version="1.0" encoding="UTF-8"?>
<svg id="_圖層_1" data-name="圖層 1" xmlns="http://www.w3.org/2000/svg" viewBox="0 0 1080 1080">
  <defs>
    <style>
      .cls-1 {
        fill: #fff;
      }
    </style>
  </defs>
  <path class="cls-1" d="M254.26,840.15c-7.13,0-14.31-.97-21.38-2.93l-194.41-53.97c-7.98-2.22-12.66-10.48-10.44-18.46,2.22-7.98,10.49-12.66,18.47-10.44l194.4,53.97c26.29,7.3,53.59-8.15,60.89-34.43,3.53-12.73,1.9-26.07-4.6-37.58-6.5-11.5-17.09-19.78-29.82-23.31l-179.36-49.79c-4.99-1.39-8.92-5.25-10.38-10.22l-51.84-176.29c-2.34-7.95,2.21-16.29,10.16-18.62,7.94-2.33,16.28,2.21,18.62,10.16l49.49,168.29,171.33,47.56c20.45,5.68,37.47,18.98,47.91,37.45s13.07,39.91,7.4,60.37c-5.68,20.45-18.98,37.47-37.45,47.91-12.09,6.84-25.46,10.33-38.99,10.33Z"/>
  <path class="cls-1" d="M318.63,738.71c-4.61,0-9.17-2.12-12.1-6.13-4.9-6.68-3.46-16.07,3.22-20.97l342.35-251.25c6.68-4.9,16.07-3.46,20.97,3.22,4.9,6.68,3.46,16.07-3.22,20.97l-342.35,251.25c-2.67,1.96-5.78,2.91-8.86,2.91Z"/>
  <path class="cls-1" d="M399.69,557.64c-8.28,0-15-6.72-15-15V85.77c0-8.28,6.72-15,15-15h626.24c8.28,0,15,6.72,15,15s-6.72,15-15,15H414.69v441.88c0,8.28-6.72,15-15,15Z"/>
  <path class="cls-1" d="M1025.92,998.46H399.69c-8.28,0-15-6.72-15-15v-224.61c0-8.28,6.72-15,15-15s15,6.72,15,15v209.61h611.24c8.28,0,15,6.72,15,15s-6.72,15-15,15Z"/>
</svg>