<?xml version="1.0" encoding="UTF-8"?>
<svg id="_圖層_1" data-name="圖層 1" xmlns="http://www.w3.org/2000/svg" viewBox="0 0 1080 1080">
  <defs>
    <style>
      .cls-1 {
        fill: #fff;
      }
    </style>
  </defs>
  <path class="cls-1" d="M478.93,735.79c-1.22,0-2.46-.15-3.69-.46l-206.75-52.31c-7.65-1.94-12.5-9.47-11.08-17.24l49.34-269.85c.75-4.08,3.15-7.68,6.65-9.92,3.49-2.25,7.76-2.94,11.79-1.92l242.35,61.32c4.03,1.02,7.45,3.66,9.46,7.3,2,3.64,2.41,7.94,1.13,11.89l-84.95,260.84c-2.05,6.3-7.9,10.36-14.25,10.36ZM289.45,657.38l179.55,45.43,75.64-232.25-211.25-53.45-43.93,240.28Z"/>
  <path class="cls-1" d="M419.19,780.93c-1.22,0-2.46-.15-3.69-.46l-115.92-29.33c-3.86-.98-7.17-3.44-9.2-6.86s-2.63-7.5-1.66-11.36l14.33-56.62c.98-3.86,3.44-7.17,6.86-9.2,3.42-2.04,7.5-2.63,11.36-1.66l115.92,29.33c3.86.98,7.17,3.44,9.2,6.86s2.63,7.5,1.66,11.36l-14.33,56.62c-1.72,6.8-7.83,11.32-14.53,11.32ZM321.48,725.73l86.83,21.97,6.97-27.54-86.83-21.97-6.97,27.54Z"/>
  <path class="cls-1" d="M342.41,840.65c-1.22,0-2.46-.15-3.69-.46-8.03-2.03-12.89-10.19-10.86-18.22l17.7-69.95c2.03-8.03,10.19-12.89,18.22-10.86,8.03,2.03,12.89,10.19,10.86,18.22l-17.7,69.95c-1.72,6.8-7.83,11.32-14.53,11.32Z"/>
  <path class="cls-1" d="M475.83,440.66c-48.21,0-87.42-39.22-87.42-87.42s39.22-87.42,87.42-87.42,87.42,39.22,87.42,87.42-39.22,87.42-87.42,87.42ZM475.83,295.81c-31.66,0-57.42,25.76-57.42,57.42s25.76,57.42,57.42,57.42,57.42-25.76,57.42-57.42-25.76-57.42-57.42-57.42Z"/>
  <path class="cls-1" d="M621.2,443.71c-5.35,0-10.53-2.87-13.24-7.92l-129.74-242.34c-1.88-3.51-2.29-7.62-1.13-11.42,1.15-3.81,3.77-7,7.28-8.88l243.52-130.37c7.3-3.91,16.39-1.16,20.3,6.14,3.91,7.3,1.16,16.39-6.15,20.3l-230.3,123.29,115.58,215.89,418.43-224.01c7.3-3.91,16.39-1.16,20.3,6.14,3.91,7.3,1.16,16.39-6.15,20.3l-431.66,231.09c-2.25,1.21-4.68,1.78-7.07,1.78Z"/>
  <path class="cls-1" d="M31.46,1044.23c-8.28,0-15-6.72-15-15s6.72-15,15-15c137.24,0,192.97-56.83,233.67-98.32,24.33-24.81,45.34-46.23,75.6-46.23s52.4,21.69,77.64,46.81c40.6,40.4,96.21,95.72,224.24,95.72h410.24c8.28,0,15,6.72,15,15s-6.72,15-15,15h-410.24c-61.99,0-114.01-11.81-159.03-36.09-38.56-20.8-65.07-47.18-86.37-68.37-22.22-22.1-38.27-38.07-56.48-38.07s-32.98,15.62-54.18,37.24c-21.27,21.69-47.74,48.68-87.67,70.13-46.58,25.02-101.34,37.18-167.41,37.18Z"/>
</svg>