<?xml version="1.0" encoding="UTF-8"?>
<svg id="_圖層_1" data-name="圖層 1" xmlns="http://www.w3.org/2000/svg" viewBox="0 0 1080 1080">
  <defs>
    <style>
      .cls-1 {
        fill: #fff;
      }
    </style>
  </defs>
  <path class="cls-1" d="M970.77,959.77c-8.28,0-15-6.72-15-15V154.23H124.23v790.55c0,8.28-6.72,15-15,15s-15-6.72-15-15V139.23c0-8.28,6.72-15,15-15h861.54c8.28,0,15,6.72,15,15v805.55c0,8.28-6.72,15-15,15Z"/>
  <path class="cls-1" d="M888.04,316.56H191.96c-8.28,0-15-6.72-15-15s6.72-15,15-15h696.09c8.28,0,15,6.72,15,15s-6.72,15-15,15Z"/>
  <path class="cls-1" d="M888.04,402.27H191.96c-8.28,0-15-6.72-15-15s6.72-15,15-15h696.09c8.28,0,15,6.72,15,15s-6.72,15-15,15Z"/>
  <path class="cls-1" d="M888.04,487.98H191.96c-8.28,0-15-6.72-15-15s6.72-15,15-15h696.09c8.28,0,15,6.72,15,15s-6.72,15-15,15Z"/>
  <path class="cls-1" d="M888.04,573.69H191.96c-8.28,0-15-6.72-15-15s6.72-15,15-15h696.09c8.28,0,15,6.72,15,15s-6.72,15-15,15Z"/>
  <path class="cls-1" d="M888.04,659.4H191.96c-8.28,0-15-6.72-15-15s6.72-15,15-15h696.09c8.28,0,15,6.72,15,15s-6.72,15-15,15Z"/>
  <path class="cls-1" d="M888.04,745.12H191.96c-8.28,0-15-6.72-15-15s6.72-15,15-15h696.09c8.28,0,15,6.72,15,15s-6.72,15-15,15Z"/>
  <path class="cls-1" d="M602.24,916.54h-124.48c-8.28,0-15-6.72-15-15s6.72-15,15-15h124.48c8.28,0,15,6.72,15,15s-6.72,15-15,15Z"/>
  <path class="cls-1" d="M888.04,830.83H191.96c-8.28,0-15-6.72-15-15s6.72-15,15-15h696.09c8.28,0,15,6.72,15,15s-6.72,15-15,15Z"/>
</svg>