<?xml version="1.0" encoding="UTF-8"?>
<svg id="_圖層_1" xmlns="http://www.w3.org/2000/svg" version="1.1" viewBox="0 0 1080 1080">
  <!-- Generator: Adobe Illustrator 29.5.0, SVG Export Plug-In . SVG Version: 2.1.0 Build 137)  -->
  <defs>
    <style>
      .st0 {
        fill: #fff;
      }
    </style>
  </defs>
  <path class="st0" d="M711.56,429.81h-48.23v-149.72h72.69v-66.31h-193.48c-30.06,0-54.9,5.66-78.18,17.83h-.02c-23.26,11.64-40.36,27.89-52.29,49.68-12.17,22.22-18.34,47.09-18.34,73.92s6,51.92,18.34,73.91c12.44,21.25,29.56,37.52,52.33,49.7,12.33,6.68,29.84,14.58,29.84,14.58l-1.28,1.92c-11.52,17.27-248.87,370.92-248.87,370.92h93.62s205.32-326.93,232.67-368.96h19.79s0,214.88,0,214.88h73.19v-210.18l-5.91-6.74,4.89-4.54,4.87,5.42h44.38v-66.31ZM594.73,433.04l-3.88-3.24h-50.63c-14.29,0-27.35-3.1-38.82-9.2-11.04-6.21-19.77-15.15-25.99-26.59-5.68-11.04-8.81-24.81-8.81-38.8,0-14.98,2.96-28.04,8.8-38.8,6.66-12.24,14.92-20.69,26-26.59,11.47-6.1,24.54-9.2,38.82-9.2h55.2v143.33l4.66,3.9-5.36,5.2Z"/>
  <path class="st0" d="M256.88,214.83c-65.3,0-102.75,44.86-102.75,123.07l-.31,14.96.31,19.23c0,79.64,36.49,123.49,102.75,123.49s102.75-43.86,102.75-123.49l.3-16.92-.3-17.25c0-79.38-36.49-123.09-102.75-123.09ZM289.3,375.43c0,36.03-10.49,52.82-33.02,52.82s-33.02-17.27-33.02-52.82v-45.2c0-36.04,10.49-52.83,33.02-52.83s33.02,16.92,33.02,53.24v44.79Z"/>
  <path class="st0" d="M823.13,443.62c-65.3,0-102.75,44.86-102.75,123.07l-.31,14.96.31,19.23c0,79.64,36.49,123.49,102.75,123.49s102.75-43.86,102.75-123.49l.3-16.92-.3-17.25c0-79.38-36.49-123.09-102.75-123.09ZM855.55,604.22c0,36.03-10.49,52.82-33.02,52.82s-33.02-17.27-33.02-52.82v-45.2c0-36.04,10.49-52.83,33.02-52.83s33.02,16.92,33.02,53.24v44.79Z"/>
</svg>