<?xml version="1.0" encoding="UTF-8"?>
<svg id="_圖層_1" xmlns="http://www.w3.org/2000/svg" version="1.1" viewBox="0 0 448.85 125.95">
  <!-- Generator: Adobe Illustrator 29.8.2, SVG Export Plug-In . SVG Version: 2.1.1 Build 3)  -->
  <path d="M287.46,87.12c-3.32-2.05-5.93-4.85-7.84-8.41-1.91-3.56-2.86-7.51-2.86-11.88s.96-8.32,2.86-11.88,4.52-6.36,7.84-8.41c3.32-2.05,7.01-3.08,11.06-3.08s7.74,1.03,11.06,3.08c3.32,2.05,5.93,4.86,7.84,8.41,1.91,3.56,2.86,7.51,2.86,11.88s-.96,8.33-2.86,11.88c-1.91,3.56-4.53,6.36-7.84,8.41-3.32,2.05-7.01,3.08-11.06,3.08s-7.74-1.03-11.06-3.08ZM304.33,77.76c1.73-1.1,3.08-2.61,4.06-4.52.99-1.91,1.48-4.05,1.48-6.41s-.49-4.5-1.48-6.41-2.35-3.42-4.09-4.52c-1.74-1.1-3.67-1.66-5.79-1.66s-4.09.55-5.81,1.66c-1.73,1.11-3.08,2.61-4.06,4.52-.99,1.91-1.48,4.05-1.48,6.41s.49,4.5,1.48,6.41c.99,1.91,2.35,3.42,4.09,4.52,1.74,1.11,3.67,1.66,5.79,1.66s4.09-.55,5.81-1.66Z"/>
  <path d="M194.06,87.12c-3.32-2.05-5.93-4.85-7.84-8.41-1.91-3.56-2.86-7.51-2.86-11.88s.96-8.32,2.86-11.88,4.52-6.36,7.84-8.41c3.32-2.05,7.01-3.08,11.06-3.08s7.74,1.03,11.06,3.08c3.32,2.05,5.93,4.86,7.84,8.41,1.91,3.56,2.86,7.51,2.86,11.88s-.96,8.33-2.86,11.88c-1.91,3.56-4.53,6.36-7.84,8.41-3.32,2.05-7.01,3.08-11.06,3.08s-7.74-1.03-11.06-3.08h0ZM210.94,77.76c1.73-1.1,3.08-2.61,4.06-4.52.99-1.91,1.48-4.05,1.48-6.41s-.49-4.5-1.48-6.41-2.35-3.42-4.09-4.52c-1.74-1.1-3.67-1.66-5.79-1.66s-4.09.55-5.81,1.66c-1.73,1.11-3.08,2.61-4.06,4.52-.99,1.91-1.48,4.05-1.48,6.41s.49,4.5,1.48,6.41c.99,1.91,2.35,3.42,4.09,4.52,1.74,1.11,3.67,1.66,5.79,1.66s4.09-.55,5.81-1.66Z"/>
  <path d="M261.4,88.52h-25.65c-3.61,0-5.34-2.26-5.34-5.18s1.84-5.18,5.34-5.18h25.05c4.73,0,4.71-7.61,0-7.61h-17.31c-7.27,0-12.58-5.33-12.58-13.56s5.31-13.56,12.58-13.56h18.47c6.69,0,11.48,4.01,11.48,10.37h-29.95c-3,0-2.99,6.39,0,6.39h17.91c7.58,0,13.15,5.79,13.15,14.18s-4.13,14.18-13.15,14.18v-.02Z"/>
  <path d="M166.45,43.63h-29.73v10.37h28.52c1.99,0,3.48,1.78,3.48,3.81s-1.34,3.81-3.48,3.81h-21.95l11.2,10.37h11.96c7.58,0,13.15-5.75,13.15-14.18s-5.56-14.18-13.15-14.18h0Z"/>
  <polygon points="154.64 61.62 142.67 61.62 166.75 89.75 180.54 89.75 154.64 61.62"/>
  <ellipse cx="143.28" cy="83.55" rx="6.69" ry="6.63"/>
</svg>