<?xml version="1.0" encoding="UTF-8"?>
<svg id="_圖層_1" xmlns="http://www.w3.org/2000/svg" version="1.1" viewBox="0 0 1080 1080">
  <!-- Generator: Adobe Illustrator 29.5.0, SVG Export Plug-In . SVG Version: 2.1.0 Build 137)  -->
  <defs>
    <style>
      .st0 {
        fill: #fff;
      }
    </style>
  </defs>
  <path class="st0" d="M815.88,562.42c-22.53,0-33.02,16.79-33.02,52.83v45.2c0,35.54,10.8,52.82,33.02,52.82s33.02-16.79,33.02-52.82v-44.79c0-36.32-10.49-53.24-33.02-53.24Z"/>
  <path class="st0" d="M588.77,336.84h-55.2c-14.29,0-27.35,3.1-38.82,9.2-11.08,5.9-19.35,14.35-26,26.59-5.84,10.76-8.8,23.82-8.8,38.8,0,13.99,3.13,27.76,8.81,38.8,6.22,11.44,14.95,20.38,25.99,26.59,11.47,6.1,24.54,9.2,38.82,9.2h50.63l3.88,3.24,5.36-5.2-4.66-3.9v-143.33Z"/>
  <path class="st0" d="M540,21.33C135.24,21.33,21.33,135.24,21.33,540s113.92,518.67,518.67,518.67,518.67-113.92,518.67-518.67S944.76,21.33,540,21.33ZM147.48,428.32l-.31-19.23.31-14.96c0-78.21,37.45-123.07,102.75-123.07s102.75,43.71,102.75,123.09l.3,17.25-.3,16.92c0,79.64-36.49,123.49-102.75,123.49s-102.75-43.86-102.75-123.49ZM704.91,552.34h-44.38l-4.87-5.42-4.89,4.54,5.91,6.74v210.18h-73.19v-214.89h-19.79c-27.35,42.04-232.67,368.97-232.67,368.97h-93.62s237.35-353.64,248.87-370.92l1.28-1.92s-17.51-7.89-29.84-14.58c-22.77-12.18-39.9-28.44-52.33-49.7-12.34-21.99-18.34-46.16-18.34-73.91s6.17-51.7,18.34-73.92c11.93-21.79,29.04-38.04,52.29-49.67h.02c23.28-12.18,48.12-17.84,78.18-17.84h193.48v66.31h-72.69v149.72h48.23v66.31ZM919.23,657.1c0,79.64-36.49,123.49-102.75,123.49s-102.75-43.86-102.75-123.49l-.31-19.23.31-14.96c0-78.21,37.45-123.07,102.75-123.07s102.75,43.71,102.75,123.09l.3,17.25-.3,16.92Z"/>
  <path class="st0" d="M282.65,431.66v-44.79c0-36.32-10.49-53.24-33.02-53.24s-33.02,16.79-33.02,52.83v45.2c0,35.54,10.8,52.82,33.02,52.82s33.02-16.79,33.02-52.82Z"/>
</svg>