<?xml version="1.0" encoding="UTF-8"?>
<svg id="_圖層_1" xmlns="http://www.w3.org/2000/svg" version="1.1" viewBox="0 0 448.85 125.95">
  <!-- Generator: Adobe Illustrator 29.8.2, SVG Export Plug-In . SVG Version: 2.1.1 Build 3)  -->
  <path d="M362.16,110.36c-7.74-4.78-13.84-11.32-18.29-19.62-4.45-8.3-6.68-17.53-6.68-27.71s2.23-19.41,6.68-27.71c4.45-8.3,10.55-14.83,18.29-19.62,7.74-4.78,16.35-7.18,25.8-7.18s18.06,2.39,25.8,7.18c7.74,4.78,13.84,11.33,18.29,19.62,4.45,8.3,6.68,17.53,6.68,27.71s-2.23,19.43-6.68,27.71c-4.45,8.3-10.56,14.83-18.29,19.62-7.74,4.78-16.35,7.18-25.8,7.18s-18.06-2.39-25.8-7.18ZM401.54,88.53c4.03-2.57,7.18-6.1,9.48-10.55,2.3-4.46,3.46-9.45,3.46-14.96s-1.15-10.5-3.46-14.96-5.48-7.98-9.55-10.55c-4.07-2.57-8.56-3.87-13.51-3.87s-9.55,1.28-13.56,3.87c-4.03,2.58-7.18,6.1-9.48,10.55-2.3,4.46-3.46,9.45-3.46,14.96s1.15,10.5,3.46,14.96c2.3,4.46,5.48,7.98,9.55,10.55,4.07,2.58,8.56,3.87,13.51,3.87s9.55-1.28,13.56-3.87Z"/>
  <path d="M144.23,110.36c-7.74-4.78-13.84-11.32-18.29-19.62-4.45-8.3-6.68-17.53-6.68-27.71s2.23-19.41,6.68-27.71,10.55-14.83,18.29-19.62c7.74-4.78,16.35-7.18,25.8-7.18s18.06,2.39,25.8,7.18c7.74,4.78,13.84,11.33,18.29,19.62,4.45,8.3,6.68,17.53,6.68,27.71s-2.23,19.43-6.68,27.71c-4.45,8.3-10.56,14.83-18.29,19.62-7.74,4.78-16.35,7.18-25.8,7.18s-18.06-2.39-25.8-7.18h0ZM183.61,88.53c4.03-2.57,7.18-6.1,9.48-10.55,2.3-4.46,3.46-9.45,3.46-14.96s-1.15-10.5-3.46-14.96-5.48-7.98-9.55-10.55c-4.07-2.57-8.56-3.87-13.51-3.87s-9.55,1.28-13.56,3.87c-4.03,2.58-7.18,6.1-9.48,10.55-2.3,4.46-3.46,9.45-3.46,14.96s1.15,10.5,3.46,14.96c2.3,4.46,5.48,7.98,9.55,10.55,4.07,2.58,8.56,3.87,13.51,3.87s9.55-1.28,13.56-3.87Z"/>
  <path d="M301.36,113.63h-59.86c-8.43,0-12.46-5.27-12.46-12.09s4.29-12.09,12.46-12.09h58.46c11.03,0,11-17.77,0-17.77h-40.39c-16.96,0-29.35-12.44-29.35-31.64s12.38-31.64,29.35-31.64h43.1c15.61,0,26.79,9.35,26.79,24.2h-69.89c-7,0-6.97,14.91,0,14.91h41.79c17.69,0,30.67,13.52,30.67,33.08s-9.63,33.08-30.67,33.08v-.04Z"/>
  <path d="M79.81,8.89H10.44v24.2h66.55c4.64,0,8.12,4.16,8.12,8.88s-3.12,8.88-8.12,8.88H25.77l26.14,24.2h27.9c17.69,0,30.67-13.42,30.67-33.08s-12.98-33.08-30.67-33.08h0Z"/>
  <polygon points="52.27 50.87 24.33 50.87 80.53 116.52 112.69 116.52 52.27 50.87"/>
  <ellipse cx="25.74" cy="102.05" rx="15.62" ry="15.48"/>
</svg>