<?xml version="1.0" encoding="UTF-8"?>
<svg id="_圖層_1" xmlns="http://www.w3.org/2000/svg" version="1.1" viewBox="0 0 448.85 125.95">
  <!-- Generator: Adobe Illustrator 29.8.2, SVG Export Plug-In . SVG Version: 2.1.1 Build 3)  -->
  <path d="M324.86,98.15c-5.31-3.28-9.49-7.76-12.54-13.45-3.05-5.69-4.58-12.02-4.58-19s1.53-13.31,4.58-19,7.23-10.17,12.54-13.45c5.31-3.28,11.21-4.92,17.69-4.92s12.38,1.64,17.69,4.92c5.31,3.28,9.49,7.77,12.54,13.45,3.05,5.69,4.58,12.02,4.58,19s-1.53,13.32-4.58,19c-3.05,5.69-7.24,10.17-12.54,13.45-5.31,3.28-11.21,4.92-17.69,4.92s-12.38-1.64-17.69-4.92ZM351.86,83.18c2.76-1.76,4.92-4.18,6.5-7.23,1.58-3.06,2.37-6.48,2.37-10.26s-.79-7.2-2.37-10.26-3.76-5.47-6.55-7.23c-2.79-1.76-5.87-2.65-9.26-2.65s-6.55.88-9.3,2.65c-2.76,1.77-4.92,4.18-6.5,7.23-1.58,3.06-2.37,6.48-2.37,10.26s.79,7.2,2.37,10.26c1.58,3.06,3.76,5.47,6.55,7.23,2.79,1.77,5.87,2.65,9.26,2.65s6.55-.88,9.3-2.65Z"/>
  <path d="M175.44,98.15c-5.31-3.28-9.49-7.76-12.54-13.45-3.05-5.69-4.58-12.02-4.58-19s1.53-13.31,4.58-19,7.23-10.17,12.54-13.45c5.31-3.28,11.21-4.92,17.69-4.92s12.38,1.64,17.69,4.92c5.31,3.28,9.49,7.77,12.54,13.45,3.05,5.69,4.58,12.02,4.58,19s-1.53,13.32-4.58,19c-3.05,5.69-7.24,10.17-12.54,13.45-5.31,3.28-11.21,4.92-17.69,4.92s-12.38-1.64-17.69-4.92h0ZM202.45,83.18c2.76-1.76,4.92-4.18,6.5-7.23,1.58-3.06,2.37-6.48,2.37-10.26s-.79-7.2-2.37-10.26-3.76-5.47-6.55-7.23c-2.79-1.76-5.87-2.65-9.26-2.65s-6.55.88-9.3,2.65c-2.76,1.77-4.92,4.18-6.5,7.23-1.58,3.06-2.37,6.48-2.37,10.26s.79,7.2,2.37,10.26c1.58,3.06,3.76,5.47,6.55,7.23,2.79,1.77,5.87,2.65,9.26,2.65s6.55-.88,9.3-2.65Z"/>
  <path d="M283.17,100.39h-41.04c-5.78,0-8.54-3.61-8.54-8.29s2.94-8.29,8.54-8.29h40.08c7.56,0,7.54-12.18,0-12.18h-27.69c-11.63,0-20.12-8.53-20.12-21.69s8.49-21.69,20.12-21.69h29.55c10.7,0,18.37,6.41,18.37,16.59h-47.92c-4.8,0-4.78,10.22,0,10.22h28.65c12.13,0,21.03,9.27,21.03,22.68s-6.6,22.68-21.03,22.68v-.03Z"/>
  <path d="M131.27,28.58h-47.56v16.59h45.63c3.18,0,5.57,2.85,5.57,6.09s-2.14,6.09-5.57,6.09h-35.12l17.92,16.59h19.13c12.13,0,21.03-9.2,21.03-22.68s-8.9-22.68-21.03-22.68h0Z"/>
  <polygon points="112.39 57.36 93.24 57.36 131.76 102.37 153.82 102.37 112.39 57.36"/>
  <ellipse cx="94.21" cy="92.45" rx="10.71" ry="10.61"/>
</svg>