<?xml version="1.0" encoding="UTF-8"?>
<svg id="_圖層_1" data-name="圖層 1" xmlns="http://www.w3.org/2000/svg" viewBox="0 0 448.85 125.95">
  <defs>
    <style>
      .cls-1 {
        fill: #fff;
      }
    </style>
  </defs>
  <path class="cls-1" d="M436.13,43.92c-3-5.58-7.16-10.04-12.37-13.27-5.21-3.22-11.07-4.85-17.43-4.85s-12.23,1.63-17.43,4.85c-5.21,3.22-9.37,7.68-12.37,13.27-3,5.59-4.52,11.9-4.52,18.77s1.52,13.18,4.52,18.77c3,5.58,7.16,10.05,12.37,13.27,5.2,3.22,11.07,4.85,17.43,4.85s12.23-1.63,17.43-4.85c5.21-3.22,9.37-7.68,12.37-13.27,3-5.59,4.52-11.9,4.52-18.77s-1.52-13.18-4.52-18.77ZM422.59,73.18c-1.61,3.12-3.86,5.62-6.68,7.43-2.83,1.81-6.05,2.73-9.57,2.73s-6.68-.92-9.53-2.73c-2.85-1.8-5.11-4.3-6.72-7.43-1.61-3.11-2.43-6.64-2.43-10.49s.82-7.38,2.43-10.49c1.61-3.12,3.86-5.62,6.68-7.43,2.83-1.81,6.05-2.73,9.57-2.73s6.67.92,9.53,2.73c2.85,1.81,5.11,4.31,6.72,7.43,1.61,3.12,2.42,6.65,2.42,10.49s-.82,7.37-2.42,10.49Z"/>
  <path class="cls-1" d="M274.35,30.66c-5.21-3.22-11.07-4.85-17.43-4.85s-12.22,1.63-17.43,4.85c-5.21,3.22-9.37,7.68-12.36,13.27-3,5.59-4.52,11.9-4.52,18.77s1.52,13.18,4.52,18.77c3,5.58,7.16,10.05,12.36,13.27,5.2,3.22,11.07,4.85,17.43,4.85s12.23-1.63,17.43-4.85c5.21-3.22,9.37-7.68,12.37-13.27,3-5.59,4.52-11.9,4.52-18.77s-1.52-13.18-4.52-18.77c-3-5.58-7.16-10.04-12.37-13.27ZM273.18,73.18c-1.61,3.12-3.86,5.62-6.68,7.43-2.83,1.81-6.05,2.73-9.58,2.73s-6.67-.92-9.53-2.73c-2.85-1.8-5.11-4.3-6.72-7.43-1.61-3.11-2.42-6.64-2.42-10.49s.82-7.38,2.42-10.49c1.61-3.12,3.86-5.62,6.68-7.43,2.83-1.81,6.05-2.73,9.57-2.73s6.67.92,9.53,2.73c2.85,1.81,5.11,4.31,6.72,7.43,1.61,3.12,2.42,6.65,2.42,10.49s-.82,7.37-2.42,10.49Z"/>
  <path class="cls-1" d="M318.3,52.54c-2.81,0-4.09-2.91-4.09-5.62,0-1.43.35-2.77.97-3.77.75-1.2,1.83-1.83,3.12-1.83h47.41c-.24-9.35-7.36-15.59-17.86-15.59h-29.55c-11.55,0-19.62,8.72-19.62,21.19s7.89,21.19,19.62,21.19h27.69c4.04,0,6.16,3.32,6.16,6.6,0,1.71-.54,3.31-1.53,4.5-1.13,1.36-2.73,2.08-4.63,2.08h-40.08c-4.96,0-8.04,2.99-8.04,7.79s3.01,7.79,8.04,7.79h41.04c13.24,0,20.53-7.88,20.53-22.18,0-13.06-8.44-22.18-20.53-22.18h-28.65Z"/>
  <path class="cls-1" d="M157.99,79.34c-5.63,0-10.21,4.54-10.21,10.11s4.58,10.11,10.21,10.11,10.21-4.54,10.21-10.11-4.58-10.11-10.21-10.11Z"/>
  <path class="cls-1" d="M191.17,70.43h3.9c12.09,0,20.53-9.12,20.53-22.18s-8.63-22.18-20.53-22.18h-47.06v15.59h45.13c3.34,0,6.07,2.96,6.07,6.59s-2.61,6.59-6.07,6.59h-34.8l1.91,2.25-1.09-1.01,36.62,42.78h20.68l-25.3-28.44Z"/>
  <path class="cls-1" d="M27.61,24.44c-10.09,0-15.87,6.95-15.87,19.01l-.05,2.3.05,2.96c0,12.3,5.63,19.06,15.87,19.06s15.87-6.76,15.87-19.06l.05-2.63-.05-2.63c0-12.25-5.63-19.01-15.87-19.01ZM32.16,48.85c0,4.88-1.41,7.18-4.51,7.18s-4.51-2.35-4.51-7.18v-6.15c0-4.88,1.41-7.18,4.51-7.18s4.51,2.3,4.51,7.23v6.1Z"/>
  <path class="cls-1" d="M115.03,89.04c-1.23-.62-2.02-1.94-2.38-3.98l-10.2-17.1c-.15.42-.29.85-.41,1.29l18.85,31.6c.35-.07.7-.15,1.04-.25l-6.9-11.56Z"/>
  <path class="cls-1" d="M112.45,75.54c.02-.64.06-1.23.13-1.77l-6.82-11.44c-.24.26-.48.52-.7.8l7.4,12.41Z"/>
  <path class="cls-1" d="M110.47,59.09c-.32.13-.62.28-.93.43l5.78,9.69c.32-.12.67-.2,1.04-.24l-5.9-9.88Z"/>
  <path class="cls-1" d="M113.23,71.27c.17-.37.37-.7.6-.99l-5.87-9.84c-.28.19-.56.39-.82.61l6.1,10.22Z"/>
  <path class="cls-1" d="M107.24,98.29l-5.38-9.02c.95,3.97,2.76,7.01,5.38,9.02Z"/>
  <path class="cls-1" d="M112.44,81.1v-1.98l-8.54-14.31c-.2.33-.39.67-.57,1.03l9.11,15.26Z"/>
  <path class="cls-1" d="M101.08,82.4c0,.72.02,1.42.07,2.1l9.31,15.6c.48.19.97.35,1.48.49l-10.85-18.19Z"/>
  <path class="cls-1" d="M101.47,71.9c-.09.53-.16,1.07-.21,1.63l16.51,27.68c.39-.01.78-.02,1.15-.06l-17.45-29.25Z"/>
  <path class="cls-1" d="M101.08,76.82s0,.07,0,.11l-.04,1.81,13.32,22.33c.41.05.83.09,1.25.12l-14.54-24.37Z"/>
  <path class="cls-1" d="M121.45,77.49v1.98l8.74,14.65c.19-.34.37-.7.55-1.07l-9.29-15.57Z"/>
  <path class="cls-1" d="M119.89,58.13c-.42-.06-.84-.12-1.27-.15l14.2,23.81.03-1.93-12.96-21.73Z"/>
  <path class="cls-1" d="M116.44,57.93c-.39,0-.78.02-1.15.05l17.21,28.85c.08-.55.13-1.11.18-1.69l-16.24-27.22Z"/>
  <path class="cls-1" d="M123.86,59.21c-.48-.21-.99-.39-1.51-.55l10.44,17.5c-.01-.74-.05-1.46-.1-2.16l-8.83-14.79Z"/>
  <path class="cls-1" d="M127.3,61.38l4.53,7.59c-.9-3.22-2.43-5.76-4.53-7.59Z"/>
  <path class="cls-1" d="M120.61,87.24c-.18.36-.38.68-.62.95l6.22,10.43c.28-.2.55-.41.81-.63l-6.41-10.75Z"/>
  <path class="cls-1" d="M113.3,58.25c-.35.07-.69.16-1.03.25l6.43,10.77c1.4.6,2.26,2.02,2.59,4.34l10.3,17.27c.14-.43.27-.88.38-1.35l-18.67-31.29Z"/>
  <path class="cls-1" d="M118.47,89.23c-.32.11-.68.18-1.06.21l6.3,10.57c.32-.13.62-.29.92-.45l-6.16-10.33Z"/>
  <path class="cls-1" d="M121.44,83.04c-.02.63-.07,1.21-.14,1.75l7.09,11.89c.24-.27.47-.55.69-.83l-7.64-12.8Z"/>
  <polygon class="cls-1" points="95.96 34.53 95.96 24.3 78.95 24.3 79.06 101.15 90.37 101.15 90.37 67.91 95.91 67.91 95.91 57.63 90.42 57.63 90.42 34.53 95.96 34.53"/>
  <polygon class="cls-1" points="42.9 102.03 42.27 102.97 48.97 114.2 49.59 113.25 42.9 102.03"/>
  <polygon class="cls-1" points="44.66 99.41 44.03 100.34 50.71 111.53 51.33 110.58 44.66 99.41"/>
  <polygon class="cls-1" points="55.23 83.66 54.61 84.59 61.13 95.52 61.74 94.57 55.23 83.66"/>
  <polygon class="cls-1" points="39.37 107.28 38.75 108.22 45.5 119.53 46.12 118.58 39.37 107.28"/>
  <polygon class="cls-1" points="41.14 104.66 40.51 105.59 47.24 116.86 47.85 115.92 41.14 104.66"/>
  <polygon class="cls-1" points="53.47 86.28 52.85 87.22 59.39 98.19 60.01 97.24 53.47 86.28"/>
  <polygon class="cls-1" points="46.42 96.78 45.8 97.72 52.44 108.86 53.06 107.91 46.42 96.78"/>
  <polygon class="cls-1" points="49.95 91.53 49.32 92.47 55.92 103.52 56.53 102.57 49.95 91.53"/>
  <polygon class="cls-1" points="51.71 88.91 51.08 89.84 57.65 100.85 58.27 99.9 51.71 88.91"/>
  <polygon class="cls-1" points="48.19 94.16 47.56 95.09 54.18 106.19 54.8 105.24 48.19 94.16"/>
  <polygon class="cls-1" points="37.61 109.91 36.99 110.84 43.76 122.2 44.38 121.25 37.61 109.91"/>
  <polygon class="cls-1" points="78.67 57.97 78.67 57.63 78.46 57.63 78.67 57.97"/>
  <polygon class="cls-1" points="73.08 24.3 71.89 24.3 78.05 34.63 78.67 34.63 78.67 33.67 73.08 24.3"/>
  <polygon class="cls-1" points="72.99 57.63 71.81 57.63 78.49 68.83 78.67 68.56 78.67 67.15 72.99 57.63"/>
  <polygon class="cls-1" points="78.67 24.5 78.67 24.3 78.55 24.3 78.67 24.5"/>
  <polygon class="cls-1" points="32.33 117.78 31.7 118.72 35.42 124.95 36.6 124.95 32.33 117.78"/>
  <polygon class="cls-1" points="34.09 115.16 33.46 116.09 38.74 124.95 39.93 124.95 34.09 115.16"/>
  <polygon class="cls-1" points="35.85 112.53 35.22 113.47 42.03 124.87 42.64 123.92 35.85 112.53"/>
  <polygon class="cls-1" points="30.56 120.41 29.94 121.34 32.09 124.95 33.27 124.95 30.56 120.41"/>
  <polygon class="cls-1" points="28.8 123.03 28.17 123.97 28.76 124.95 29.94 124.95 28.8 123.03"/>
  <path class="cls-1" d="M60.77,44.71c.05-.56.12-1.1.22-1.62l-7.03-11.78c-.24.27-.47.55-.69.83l7.5,12.57Z"/>
  <polygon class="cls-1" points="76.32 57.63 75.14 57.63 78.67 63.55 78.67 61.57 76.32 57.63"/>
  <path class="cls-1" d="M69.6,57.53c-.45-.06-.9-.14-1.33-.25l8.49,14.22.62-.95-7.77-13.03Z"/>
  <path class="cls-1" d="M63.39,37.95c.23-.27.48-.52.73-.76l-5.68-9.51c-.3.17-.58.36-.86.54l5.8,9.73Z"/>
  <path class="cls-1" d="M60.08,26.82l5.53,9.26s.05-.03.07-.05c.27-.16.56-.28.84-.41l-5.52-9.25c-.31.14-.61.29-.92.45Z"/>
  <path class="cls-1" d="M61.72,40.72c.09-.2.16-.41.25-.6.09-.18.19-.32.28-.49l-6.17-10.34c-.27.22-.53.45-.78.68l6.42,10.75Z"/>
  <path class="cls-1" d="M69.78,24.36c-.38.02-.76.05-1.13.08l6.08,10.19h1.18l-6.13-10.27Z"/>
  <polygon class="cls-1" points="76.4 24.3 75.22 24.3 78.67 30.08 78.67 28.1 76.4 24.3"/>
  <path class="cls-1" d="M65.35,55.99c-1.4-.93-2.56-2.24-3.38-3.85-.49-1.05-.84-2.28-1.05-3.58l-8.8-14.75c-.18.29-.36.57-.52.87-.02.04-.04.09-.07.13l23.49,39.37.62-.95-10.28-17.23Z"/>
  <path class="cls-1" d="M63.73,25.37c-.33.1-.66.21-.99.33l5.54,9.29c.35-.09.7-.14,1.06-.2l-5.61-9.41Z"/>
  <path class="cls-1" d="M66.66,24.7c-.36.06-.71.13-1.06.2l5.8,9.73h1.18l-5.92-9.93Z"/>
  <path class="cls-1" d="M49.42,40.43c-.11.49-.21.99-.29,1.49l14.91,24.98c.46.13.92.24,1.39.34l-16-26.82Z"/>
  <path class="cls-1" d="M59.67,65.14c.53.28,1.07.54,1.62.78l-12.48-20.93c-.01.36-.03.72-.03,1.08,0,.3.02.59.02.89l10.83,18.15s.03.02.04.02Z"/>
  <path class="cls-1" d="M50.58,36.81c-.17.4-.32.8-.46,1.21l23.16,38.82.62-.95-23.31-39.08Z"/>
  <polygon class="cls-1" points="57 81.03 56.37 81.97 62.86 92.85 63.48 91.9 57 81.03"/>
  <polygon class="cls-1" points="58.76 78.41 58.13 79.34 64.6 90.18 65.22 89.23 58.76 78.41"/>
  <polygon class="cls-1" points="60.52 75.78 59.89 76.72 66.34 87.51 66.95 86.56 60.52 75.78"/>
  <polygon class="cls-1" points="64.05 70.53 63.42 71.46 69.81 82.18 70.43 81.23 64.05 70.53"/>
  <polygon class="cls-1" points="65.81 67.91 65.18 68.84 71.54 79.51 72.16 78.56 65.81 67.91"/>
  <polygon class="cls-1" points="62.28 73.16 61.66 74.09 68.07 84.84 68.69 83.89 62.28 73.16"/>
  <path class="cls-1" d="M52.96,59.51c.92,1.21,1.95,2.29,3.13,3.26l-6.74-11.29c.34,1.55.82,3.03,1.46,4.44l2.15,3.6Z"/>
</svg>