<?xml version="1.0" encoding="UTF-8"?>
<svg id="_圖層_1" xmlns="http://www.w3.org/2000/svg" version="1.1" viewBox="0 0 1080 453.54">
  <!-- Generator: Adobe Illustrator 29.5.0, SVG Export Plug-In . SVG Version: 2.1.0 Build 137)  -->
  <defs>
    <style>
      .st0 {
        fill: #fff;
      }
    </style>
  </defs>
  <path class="st0" d="M222.91,214.76c-7.42-1.36-14.26-3.65-20.55-6.92-10.69-5.56-18.99-13.43-24.92-23.64-5.94-10.21-8.9-21.98-8.9-35.34s2.94-25.12,8.8-35.34c5.89-10.21,14.16-18.08,24.85-23.64,10.69-5.56,23.09-8.32,37.2-8.32h75.02v31.09h-17.48v72.41h17.48v31.09h-17.48v103.49h-34.25v-103.49c-38.53,59.28-77.03,118.56-115.56,177.83h-44.41c40.06-59.76,80.13-119.49,120.19-179.24l.03.03ZM238.05,112.68c-6.61,0-12.4,1.51-17.38,4.48-4.98,2.99-8.83,7.24-11.59,12.73-2.74,5.51-4.12,11.82-4.12,18.99s1.38,13.48,4.12,18.99c2.74,5.51,6.64,9.76,11.67,12.73,5.03,2.99,10.81,4.48,17.3,4.48h24.62v-72.38s-24.62,0-24.62,0ZM296.93,81.59h-34.25"/>
  <path class="st0" d="M110.44,178.67c-.63.45-1.31.83-2.04,1.11-1.06.43-2.16.65-3.29.78-1.46.18-2.94.18-4.4.05-1.16-.13-2.34-.33-3.42-.73-.86-.33-1.69-.75-2.41-1.28-.78-.58-1.48-1.31-2.06-2.09-1.13-1.46-1.91-3.17-2.49-4.9-.28-.8-.48-1.61-.68-2.44-.2-.93-.38-1.89-.5-2.84-.15-1.18-.28-2.36-.33-3.55-.05-.98-.08-1.99-.08-2.97h0v-22.08h0c0-.8,0-1.61.05-2.41.03-.75.08-1.51.15-2.24.05-.5.1-.98.15-1.48.1-.83.23-1.63.4-2.44.15-.73.33-1.43.53-2.14.18-.63.38-1.26.63-1.86.58-1.48,1.33-2.92,2.31-4.15.5-.63,1.08-1.21,1.74-1.69.6-.45,1.26-.86,1.96-1.16.8-.35,1.66-.6,2.54-.75,1.18-.23,2.36-.3,3.55-.3s2.39.08,3.55.3c.88.18,1.74.4,2.54.75.7.3,1.36.68,1.96,1.16.63.48,1.21,1.06,1.71,1.69,1.01,1.23,1.76,2.67,2.34,4.15.23.6.45,1.23.63,1.86.2.7.38,1.41.53,2.14.18.8.3,1.63.4,2.44.08.5.13.98.15,1.48.08.75.13,1.48.15,2.24.03.8.05,1.61.05,2.41h0v22.11h0c0,1.56-.05,3.09-.2,4.65-.08.91-.2,1.79-.33,2.69-.1.6-.2,1.21-.33,1.79-.13.53-.25,1.06-.4,1.58-.25.93-.58,1.84-.96,2.74-.53,1.21-1.18,2.36-1.99,3.4-.6.75-1.28,1.46-2.06,2.04l-.05-.05ZM88.49,214.56c2.19.53,4.45.96,6.84,1.21,2.39.28,4.88.4,7.39.4s5-.13,7.39-.4,4.65-.68,6.84-1.21c4.38-1.08,8.4-2.72,12.02-4.88s6.84-4.85,9.61-8.02c1.38-1.58,2.67-3.29,3.85-5.16,1.18-1.84,2.24-3.82,3.19-5.94s1.79-4.33,2.51-6.66c.35-1.16.68-2.36.98-3.6s.58-2.49.8-3.77.45-2.59.63-3.95c.18-1.33.33-2.72.45-4.1.05-.7.1-1.41.15-2.11s.08-1.43.1-2.16c0-.35.03-.73.05-1.11,0-.38,0-.73.03-1.11v-2.14h0v-22.13h0v-2.16c0-.38,0-.73-.03-1.11,0-.38,0-.73-.05-1.08-.03-.73-.08-1.43-.1-2.14-.05-.7-.1-1.41-.15-2.11-.13-1.38-.28-2.77-.45-4.1s-.38-2.64-.63-3.92-.5-2.54-.8-3.75c-.3-1.23-.63-2.41-.98-3.57-.73-2.34-1.56-4.55-2.51-6.66s-2.01-4.07-3.19-5.94-2.44-3.55-3.85-5.13c-2.77-3.17-5.99-5.83-9.61-7.97-3.62-2.14-7.65-3.75-12.02-4.83-2.19-.53-4.45-.93-6.84-1.21-2.39-.28-4.88-.4-7.39-.4s-5,.13-7.39.4c-2.39.28-4.65.65-6.84,1.21-4.38,1.08-8.4,2.69-12.02,4.83-3.62,2.14-6.84,4.8-9.61,7.97-1.38,1.58-2.67,3.29-3.85,5.13-1.18,1.84-2.24,3.82-3.19,5.94-.96,2.11-1.79,4.33-2.51,6.66-.35,1.16-.68,2.36-.98,3.57-.3,1.23-.58,2.46-.8,3.75-.25,1.28-.45,2.59-.63,3.92s-.33,2.69-.45,4.1c-.05.7-.1,1.41-.15,2.11-.05.7-.08,1.43-.1,2.14,0,.35-.03.73-.05,1.08s0,.73-.03,1.11v2.16h0v21.75h0v2.24c0,.38,0,.75.03,1.11,0,.38,0,.73.05,1.11.03.73.08,1.46.1,2.19.05.73.1,1.43.15,2.14.13,1.41.28,2.79.45,4.15s.38,2.67.63,3.97c.25,1.31.5,2.57.8,3.8.3,1.23.63,2.44.98,3.62.73,2.36,1.56,4.6,2.51,6.72.96,2.11,2.01,4.12,3.19,5.99s2.44,3.6,3.85,5.21c2.77,3.19,5.99,5.89,9.61,8.05,3.62,2.16,7.65,3.8,12.02,4.88v-.08Z"/>
  <path class="st0" d="M387.99,282.16c-.63.45-1.31.83-2.04,1.11-1.06.43-2.16.65-3.29.78-1.46.18-2.94.18-4.4.05-1.16-.13-2.34-.33-3.42-.73-.86-.33-1.69-.75-2.41-1.28-.78-.58-1.48-1.31-2.06-2.09-1.13-1.46-1.91-3.17-2.49-4.9-.28-.8-.48-1.61-.68-2.44-.2-.93-.38-1.89-.5-2.84-.15-1.18-.28-2.36-.33-3.55-.05-.98-.08-1.99-.08-2.97h0v-22.11h0c0-.8,0-1.61.05-2.41.03-.75.08-1.51.15-2.24.05-.5.1-.98.15-1.48.1-.83.23-1.63.4-2.44.15-.73.33-1.43.53-2.14.18-.63.38-1.26.63-1.86.58-1.48,1.33-2.92,2.31-4.15.5-.63,1.08-1.21,1.71-1.69.6-.45,1.26-.86,1.96-1.16.8-.35,1.66-.6,2.54-.75,1.18-.23,2.36-.3,3.55-.3s2.39.08,3.55.3c.88.18,1.74.4,2.54.75.7.3,1.36.68,1.96,1.16.63.48,1.21,1.06,1.71,1.69,1.01,1.23,1.76,2.67,2.34,4.15.23.6.43,1.23.63,1.86.2.7.38,1.41.53,2.14.18.8.3,1.63.4,2.44.08.5.13.98.15,1.48.08.75.13,1.48.15,2.24.03.8.05,1.61.05,2.41h0v22.11h0c0,1.56-.05,3.09-.2,4.65-.08.91-.2,1.79-.33,2.69-.1.6-.2,1.21-.33,1.79-.13.53-.25,1.06-.4,1.58-.25.93-.58,1.84-.96,2.74-.53,1.21-1.18,2.36-1.99,3.4-.6.75-1.28,1.46-2.06,2.04l-.03-.03ZM366.04,318.05c2.19.53,4.45.96,6.84,1.21s4.88.4,7.39.4,5-.13,7.39-.4,4.65-.68,6.84-1.21c4.38-1.08,8.4-2.72,12.02-4.88s6.84-4.85,9.61-8.02c1.38-1.58,2.67-3.29,3.85-5.16,1.18-1.84,2.24-3.82,3.19-5.94.96-2.11,1.79-4.33,2.51-6.66.35-1.16.68-2.36.98-3.6s.58-2.49.8-3.77c.25-1.28.45-2.59.63-3.95.18-1.33.33-2.72.45-4.1.05-.7.1-1.41.15-2.11s.08-1.43.1-2.16c0-.35.03-.73.05-1.11,0-.38,0-.73.03-1.11v-2.16h0v-22.13h0v-2.16c0-.38,0-.73-.03-1.11,0-.38,0-.73-.05-1.08-.03-.73-.08-1.43-.1-2.14-.05-.7-.1-1.41-.15-2.11-.13-1.38-.28-2.77-.45-4.1-.18-1.33-.38-2.64-.63-3.92-.25-1.28-.5-2.54-.8-3.75-.3-1.23-.63-2.41-.98-3.57-.73-2.34-1.56-4.55-2.51-6.66s-2.01-4.07-3.19-5.94c-1.18-1.84-2.44-3.55-3.85-5.13-2.77-3.17-5.99-5.83-9.61-7.97s-7.65-3.75-12.02-4.83c-2.19-.53-4.45-.93-6.84-1.21s-4.88-.4-7.39-.4-5,.13-7.39.4c-2.39.28-4.65.65-6.84,1.21-4.38,1.08-8.4,2.69-12.02,4.83s-6.84,4.8-9.61,7.97c-1.38,1.58-2.67,3.29-3.85,5.13s-2.24,3.82-3.19,5.94-1.79,4.33-2.51,6.66c-.35,1.16-.68,2.36-.98,3.57-.3,1.23-.58,2.46-.8,3.75-.23,1.28-.45,2.59-.63,3.92s-.33,2.69-.45,4.1c-.05.7-.1,1.41-.15,2.11s-.08,1.43-.1,2.14c0,.35-.03.73-.05,1.08,0,.38,0,.73-.03,1.11v2.14h0v21.73h0v2.21c0,.38,0,.75.03,1.11,0,.38,0,.73.05,1.11.03.73.08,1.46.1,2.19.05.73.1,1.43.15,2.14.13,1.41.28,2.79.45,4.15s.38,2.67.63,3.97c.25,1.28.5,2.57.8,3.8.3,1.23.63,2.44.98,3.62.73,2.36,1.56,4.6,2.51,6.72s2.01,4.12,3.19,5.99c1.18,1.86,2.44,3.6,3.85,5.21,2.77,3.19,5.99,5.89,9.61,8.05s7.65,3.8,12.02,4.88v.03Z"/>
  <g>
    <g>
      <path class="st0" d="M564.77,238.07l-32.69-65.39h-29.43v65.39h-23.54V82.9h60.16c29.43,0,48.16,18.96,48.16,45.35,0,22.23-13.51,36.39-30.96,41.2l35.74,68.66h-27.46l.03-.03ZM537.54,104.02h-34.88v48.59h34.88c15.69,0,26.38-8.93,26.38-24.19s-10.69-24.42-26.38-24.42v.03Z"/>
      <path class="st0" d="M723.87,222.81c-10.69,10.69-24.42,16.57-40.97,16.57s-30.08-5.89-40.77-16.57c-15.27-15.27-15.04-32.47-15.04-62.32s-.23-47.08,15.04-62.32c10.69-10.69,24.19-16.57,40.77-16.57s30.28,5.89,40.97,16.57c15.27,15.27,14.81,32.47,14.81,62.32s.43,47.08-14.81,62.32ZM705.99,112.3c-5.46-5.89-13.96-9.58-23.11-9.58s-17.66,3.7-23.11,9.58c-7.62,8.27-9.15,17-9.15,48.16s1.53,39.89,9.15,48.16c5.46,5.89,13.96,9.58,23.11,9.58s17.66-3.7,23.11-9.58c7.62-8.27,9.15-17,9.15-48.16s-1.53-39.89-9.15-48.16Z"/>
      <path class="st0" d="M825.65,239.38c-23.31,0-40.09-5.46-54.93-20.5l15.69-15.47c11.34,11.34,23.77,14.81,39.66,14.81,20.27,0,32.04-8.73,32.04-23.77,0-6.77-1.96-12.42-6.11-16.12-3.92-3.7-7.85-5.23-17-6.54l-18.31-2.62c-12.65-1.74-22.66-6.11-29.43-12.42-7.62-7.19-11.34-17-11.34-29.65,0-27.04,19.62-45.55,51.86-45.55,20.5,0,34.88,5.23,48.16,17.66l-15.04,14.81c-9.58-9.15-20.7-12-33.78-12-18.31,0-28.34,10.46-28.34,24.19,0,5.66,1.74,10.69,5.89,14.39,3.92,3.5,10.24,6.11,17.43,7.19l17.66,2.62c14.39,2.19,22.46,5.66,29,11.54,8.5,7.42,12.65,18.54,12.65,31.81,0,28.55-23.31,45.55-55.78,45.55l.03.05Z"/>
      <path class="st0" d="M1015.06,222.81c-10.69,10.69-24.42,16.57-40.97,16.57s-30.08-5.89-40.77-16.57c-15.27-15.27-15.04-32.47-15.04-62.32s-.23-47.08,15.04-62.32c10.69-10.69,24.19-16.57,40.77-16.57s30.28,5.89,40.97,16.57c15.27,15.27,14.81,32.47,14.81,62.32s.43,47.08-14.81,62.32ZM997.17,112.3c-5.46-5.89-13.96-9.58-23.11-9.58s-17.66,3.7-23.11,9.58c-7.62,8.27-9.15,17-9.15,48.16s1.53,39.89,9.15,48.16c5.46,5.89,13.96,9.58,23.11,9.58s17.66-3.7,23.11-9.58c7.62-8.27,9.15-17,9.15-48.16s-1.53-39.89-9.15-48.16Z"/>
    </g>
    <g>
      <path class="st0" d="M504.11,316.57l-10.49-20.97h-9.46v20.97h-7.54v-49.8h19.32c9.43,0,15.47,6.09,15.47,14.56,0,7.14-4.33,11.67-9.93,13.23l11.47,22.03h-8.8l-.03-.03ZM495.36,273.56h-11.19v15.59h11.19c5.03,0,8.48-2.87,8.48-7.77s-3.42-7.82-8.48-7.82Z"/>
      <path class="st0" d="M548.8,312.77c-2.31,2.39-5.81,4.2-10.64,4.2s-8.25-1.81-10.56-4.2c-3.34-3.5-4.2-7.97-4.2-13.98s.83-10.41,4.2-13.91c2.31-2.39,5.73-4.2,10.56-4.2s8.32,1.81,10.64,4.2c3.37,3.5,4.2,7.97,4.2,13.91s-.83,10.49-4.2,13.98ZM543.42,289.05c-1.33-1.33-3.14-2.04-5.26-2.04s-3.85.7-5.18,2.04c-2.16,2.16-2.44,5.89-2.44,9.71s.28,7.54,2.44,9.73c1.33,1.33,3.07,2.09,5.18,2.09s3.92-.78,5.26-2.09c2.16-2.16,2.44-5.89,2.44-9.73s-.28-7.54-2.44-9.71Z"/>
      <path class="st0" d="M591.18,313.82c-1.96,1.96-5.11,3.14-8.68,3.14-3.85,0-6.72-.98-9.38-4.2v3.77h-6.99v-49.8h7.14v17.91c2.59-3.07,5.53-3.97,9.31-3.97,3.57,0,6.64,1.18,8.6,3.14,3.57,3.57,4,9.58,4,14.96s-.43,11.47-4,15.04ZM580.69,287.04c-6.44,0-7.42,5.46-7.42,11.74s.98,11.82,7.42,11.82,7.34-5.53,7.34-11.82-.91-11.74-7.34-11.74Z"/>
      <path class="st0" d="M632.02,312.77c-2.31,2.39-5.81,4.2-10.64,4.2s-8.25-1.81-10.56-4.2c-3.34-3.5-4.2-7.97-4.2-13.98s.83-10.41,4.2-13.91c2.31-2.39,5.73-4.2,10.56-4.2s8.32,1.81,10.64,4.2c3.34,3.5,4.2,7.97,4.2,13.91s-.83,10.49-4.2,13.98ZM626.64,289.05c-1.33-1.33-3.14-2.04-5.26-2.04s-3.85.7-5.18,2.04c-2.16,2.16-2.44,5.89-2.44,9.71s.28,7.54,2.44,9.73c1.33,1.33,3.07,2.09,5.18,2.09s3.92-.78,5.26-2.09c2.16-2.16,2.44-5.89,2.44-9.73s-.28-7.54-2.44-9.71Z"/>
      <path class="st0" d="M659.94,316.57c-6.64,0-9.73-4.75-9.73-9.86v-19.52h-4.05v-5.46h4.05v-10.76h7.14v10.76h6.87v5.46h-6.87v19.16c0,2.59,1.26,4.12,3.92,4.12h2.94v6.09h-4.28Z"/>
      <path class="st0" d="M676.56,274.09v-7.54h7.54v7.54h-7.54ZM676.77,316.54v-35.46h7.14v35.46h-7.14Z"/>
      <path class="st0" d="M712.73,316.97c-7.97,0-15.82-4.9-15.82-18.18s7.82-18.11,15.82-18.11c4.9,0,8.32,1.41,11.67,4.98l-4.9,4.75c-2.24-2.44-3.97-3.37-6.79-3.37s-5.03,1.13-6.56,3.14c-1.53,1.96-2.09,4.48-2.09,8.6s.55,6.72,2.09,8.68c1.53,2.04,3.85,3.14,6.56,3.14s4.55-.91,6.79-3.34l4.9,4.68c-3.34,3.57-6.79,5.03-11.67,5.03Z"/>
      <path class="st0" d="M770.5,316.97c-7.49,0-12.88-1.76-17.63-6.56l5.03-4.98c3.65,3.65,7.62,4.75,12.73,4.75,6.51,0,10.29-2.79,10.29-7.62,0-2.16-.63-3.97-1.96-5.18-1.26-1.18-2.51-1.69-5.46-2.09l-5.89-.83c-4.05-.55-7.27-1.96-9.46-3.97-2.44-2.31-3.65-5.46-3.65-9.51,0-8.68,6.29-14.61,16.65-14.61,6.56,0,11.19,1.69,15.47,5.66l-4.83,4.75c-3.07-2.94-6.64-3.85-10.84-3.85-5.89,0-9.1,3.34-9.1,7.77,0,1.81.55,3.42,1.89,4.63,1.26,1.11,3.29,1.96,5.61,2.31l5.66.83c4.63.7,7.19,1.81,9.31,3.7,2.72,2.39,4.05,5.94,4.05,10.21,0,9.15-7.49,14.61-17.91,14.61l.05-.03Z"/>
      <path class="st0" d="M824.9,312.77c-2.31,2.39-5.81,4.2-10.64,4.2s-8.25-1.81-10.56-4.2c-3.34-3.5-4.2-7.97-4.2-13.98s.83-10.41,4.2-13.91c2.31-2.39,5.73-4.2,10.56-4.2s8.32,1.81,10.64,4.2c3.34,3.5,4.2,7.97,4.2,13.91s-.83,10.49-4.2,13.98ZM819.52,289.05c-1.33-1.33-3.14-2.04-5.26-2.04s-3.85.7-5.18,2.04c-2.16,2.16-2.44,5.89-2.44,9.71s.28,7.54,2.44,9.73c1.33,1.33,3.07,2.09,5.18,2.09s3.92-.78,5.26-2.09c2.16-2.16,2.44-5.89,2.44-9.73s-.28-7.54-2.44-9.71Z"/>
      <path class="st0" d="M851.76,316.57c-6.79,0-9.73-4.55-9.73-9.78v-40.01h7.14v39.59c0,2.72.98,4.12,3.85,4.12h3.14v6.09h-4.4Z"/>
      <path class="st0" d="M888.9,316.57v-3.57c-2.44,2.67-5.89,4-9.43,4s-6.64-1.18-8.75-3.22c-2.72-2.67-3.57-6.01-3.57-10.01v-22.66h7.14v21.6c0,5.53,3.14,7.9,7.14,7.9s7.34-2.44,7.34-7.9v-21.6h7.14v35.46h-7.02Z"/>
      <path class="st0" d="M921.27,316.57c-6.64,0-9.73-4.75-9.73-9.86v-19.52h-4.05v-5.46h4.05v-10.76h7.14v10.76h6.87v5.46h-6.87v19.16c0,2.59,1.26,4.12,3.92,4.12h2.94v6.09h-4.28Z"/>
      <path class="st0" d="M937.92,274.09v-7.54h7.54v7.54h-7.54ZM938.12,316.54v-35.46h7.14v35.46h-7.14Z"/>
      <path class="st0" d="M983.79,312.77c-2.31,2.39-5.81,4.2-10.64,4.2s-8.25-1.81-10.56-4.2c-3.34-3.5-4.2-7.97-4.2-13.98s.83-10.41,4.2-13.91c2.31-2.39,5.73-4.2,10.56-4.2s8.32,1.81,10.64,4.2c3.34,3.5,4.2,7.97,4.2,13.91s-.83,10.49-4.2,13.98ZM978.41,289.05c-1.33-1.33-3.14-2.04-5.26-2.04s-3.85.7-5.18,2.04c-2.16,2.16-2.44,5.89-2.44,9.71s.28,7.54,2.44,9.73c1.33,1.33,3.07,2.09,5.18,2.09s3.92-.78,5.26-2.09c2.16-2.16,2.44-5.89,2.44-9.73s-.28-7.54-2.44-9.71Z"/>
      <path class="st0" d="M1022.75,316.57v-21.6c0-5.53-3.14-7.9-7.14-7.9s-7.34,2.44-7.34,7.9v21.6h-7.14v-35.46h6.99v3.57c2.44-2.67,5.89-3.97,9.46-3.97s6.64,1.18,8.75,3.22c2.72,2.67,3.57,6.01,3.57,10.01v22.66h-7.14v-.03Z"/>
    </g>
  </g>
</svg>