<?xml version="1.0" encoding="UTF-8"?>
<svg id="_圖層_1" data-name="圖層 1" xmlns="http://www.w3.org/2000/svg" viewBox="0 0 448.85 125.95">
  <path d="M388.64,95.15c-5.31-3.28-9.49-7.76-12.54-13.45-3.05-5.69-4.58-12.02-4.58-19s1.53-13.31,4.58-19c3.05-5.69,7.23-10.17,12.54-13.45,5.31-3.28,11.21-4.92,17.69-4.92s12.38,1.64,17.69,4.92c5.31,3.28,9.49,7.77,12.54,13.45,3.05,5.69,4.58,12.02,4.58,19s-1.53,13.32-4.58,19c-3.05,5.69-7.24,10.17-12.54,13.45-5.31,3.28-11.21,4.92-17.69,4.92s-12.38-1.64-17.69-4.92ZM415.64,80.18c2.76-1.76,4.92-4.18,6.5-7.23,1.58-3.06,2.37-6.48,2.37-10.26s-.79-7.2-2.37-10.26c-1.58-3.06-3.76-5.47-6.55-7.23-2.79-1.76-5.87-2.65-9.26-2.65s-6.55.88-9.3,2.65c-2.76,1.77-4.92,4.18-6.5,7.23-1.58,3.06-2.37,6.48-2.37,10.26s.79,7.2,2.37,10.26c1.58,3.06,3.76,5.47,6.55,7.23,2.79,1.77,5.87,2.65,9.26,2.65s6.55-.88,9.3-2.65Z"/>
  <path d="M239.23,95.15c-5.31-3.28-9.49-7.76-12.54-13.45-3.05-5.69-4.58-12.02-4.58-19s1.53-13.31,4.58-19c3.05-5.69,7.23-10.17,12.54-13.45,5.31-3.28,11.21-4.92,17.69-4.92s12.38,1.64,17.69,4.92c5.31,3.28,9.49,7.77,12.54,13.45,3.05,5.69,4.58,12.02,4.58,19s-1.53,13.32-4.58,19c-3.05,5.69-7.24,10.17-12.54,13.45-5.31,3.28-11.21,4.92-17.69,4.92s-12.38-1.64-17.69-4.92ZM266.23,80.18c2.76-1.76,4.92-4.18,6.5-7.23,1.58-3.06,2.37-6.48,2.37-10.26s-.79-7.2-2.37-10.26c-1.58-3.06-3.76-5.47-6.55-7.23-2.79-1.76-5.87-2.65-9.26-2.65s-6.55.88-9.3,2.65c-2.76,1.77-4.92,4.18-6.5,7.23-1.58,3.06-2.37,6.48-2.37,10.26s.79,7.2,2.37,10.26c1.58,3.06,3.76,5.47,6.55,7.23,2.79,1.77,5.87,2.65,9.26,2.65s6.55-.88,9.3-2.65Z"/>
  <path d="M346.96,97.39h-41.04c-5.78,0-8.54-3.61-8.54-8.29s2.94-8.29,8.54-8.29h40.08c7.56,0,7.54-12.18,0-12.18h-27.69c-11.63,0-20.12-8.53-20.12-21.69s8.49-21.69,20.12-21.69h29.55c10.7,0,18.37,6.41,18.37,16.59h0s-47.92,0-47.92,0c-4.8,0-4.78,10.22,0,10.22h28.65c12.13,0,21.03,9.27,21.03,22.68s-6.6,22.68-21.03,22.68Z"/>
  <path d="M195.06,25.58h-47.56v16.59h45.63c3.18,0,5.57,2.85,5.57,6.09s-2.14,6.09-5.57,6.09h-35.12l17.92,16.59h19.13c12.13,0,21.03-9.2,21.03-22.68s-8.9-22.68-21.03-22.68Z"/>
  <polygon points="176.18 54.36 157.02 54.36 195.55 99.37 217.6 99.37 176.18 54.36"/>
  <ellipse cx="157.99" cy="89.45" rx="10.71" ry="10.61"/>
  <path d="M27.61,24.44c-10.09,0-15.87,6.95-15.87,19.01l-.05,2.3.05,2.96c0,12.3,5.63,19.06,15.87,19.06s15.87-6.76,15.87-19.06l.05-2.63-.05-2.63c0-12.25-5.63-19.01-15.87-19.01ZM32.16,48.85c0,4.88-1.41,7.18-4.51,7.18s-4.51-2.35-4.51-7.18v-6.15c0-4.88,1.41-7.18,4.51-7.18s4.51,2.3,4.51,7.23v6.1Z"/>
  <path d="M115.03,89.04c-1.23-.62-2.02-1.94-2.38-3.98l-10.2-17.1c-.15.42-.29.85-.41,1.29l18.85,31.6c.35-.07.7-.15,1.04-.25l-6.9-11.56Z"/>
  <path d="M113.23,71.27c.17-.37.37-.7.6-.99l-5.87-9.84c-.28.19-.56.39-.82.61l6.1,10.22Z"/>
  <path d="M110.47,59.09c-.32.13-.62.28-.93.43l5.78,9.69c.32-.12.67-.2,1.04-.24l-5.9-9.88Z"/>
  <path d="M112.45,75.54c.02-.64.06-1.23.13-1.77l-6.82-11.44c-.24.26-.48.52-.7.8l7.4,12.41Z"/>
  <path d="M101.47,71.9c-.09.53-.16,1.07-.21,1.63l16.51,27.68c.39-.01.78-.02,1.15-.06l-17.45-29.25Z"/>
  <path d="M101.08,82.4c0,.72.02,1.42.07,2.1l9.31,15.6c.48.19.97.35,1.48.49l-10.85-18.19Z"/>
  <path d="M112.44,81.1v-1.98l-8.54-14.31c-.2.33-.39.67-.57,1.03l9.11,15.26Z"/>
  <path d="M107.24,98.29l-5.38-9.02c.95,3.97,2.76,7.01,5.38,9.02Z"/>
  <path d="M101.08,76.82s0,.07,0,.11l-.04,1.81,13.32,22.33c.41.05.83.09,1.25.12l-14.54-24.37Z"/>
  <path d="M127.3,61.38l4.53,7.59c-.9-3.22-2.43-5.76-4.53-7.59Z"/>
  <path d="M119.89,58.13c-.42-.06-.84-.12-1.27-.15l14.2,23.81.03-1.93-12.96-21.73Z"/>
  <path d="M116.44,57.93c-.39,0-.78.02-1.15.05l17.21,28.85c.08-.55.13-1.11.18-1.69l-16.24-27.22Z"/>
  <path d="M118.47,89.23c-.32.11-.68.18-1.06.21l6.3,10.57c.32-.13.62-.29.92-.45l-6.16-10.33Z"/>
  <path d="M123.86,59.21c-.48-.21-.99-.39-1.51-.55l10.44,17.5c-.01-.74-.05-1.46-.1-2.16l-8.83-14.79Z"/>
  <path d="M113.3,58.25c-.35.07-.69.16-1.03.25l6.43,10.77c1.4.6,2.26,2.02,2.59,4.34l10.3,17.27c.14-.43.27-.88.38-1.35l-18.67-31.29Z"/>
  <path d="M120.61,87.24c-.18.36-.38.68-.62.95l6.22,10.43c.28-.2.55-.41.81-.63l-6.41-10.75Z"/>
  <path d="M121.44,83.04c-.02.63-.07,1.21-.14,1.75l7.09,11.89c.24-.27.47-.55.69-.83l-7.64-12.8Z"/>
  <path d="M121.45,77.49v1.98l8.74,14.65c.19-.34.37-.7.55-1.07l-9.29-15.57Z"/>
  <polygon points="95.96 34.53 95.96 24.3 78.95 24.3 79.06 101.15 90.37 101.15 90.37 67.91 95.91 67.91 95.91 57.63 90.42 57.63 90.42 34.53 95.96 34.53"/>
  <polygon points="41.14 104.66 40.51 105.59 47.24 116.86 47.85 115.92 41.14 104.66"/>
  <polygon points="42.9 102.03 42.27 102.97 48.97 114.2 49.59 113.25 42.9 102.03"/>
  <polygon points="57 81.03 56.37 81.97 62.86 92.85 63.48 91.9 57 81.03"/>
  <polygon points="46.42 96.78 45.8 97.72 52.44 108.86 53.06 107.91 46.42 96.78"/>
  <polygon points="44.66 99.41 44.03 100.34 50.71 111.53 51.33 110.58 44.66 99.41"/>
  <polygon points="51.71 88.91 51.08 89.84 57.65 100.85 58.27 99.91 51.71 88.91"/>
  <polygon points="55.23 83.66 54.61 84.59 61.13 95.52 61.74 94.57 55.23 83.66"/>
  <polygon points="49.95 91.53 49.32 92.47 55.92 103.52 56.53 102.57 49.95 91.53"/>
  <polygon points="48.19 94.16 47.56 95.09 54.18 106.19 54.8 105.24 48.19 94.16"/>
  <polygon points="39.37 107.28 38.75 108.22 45.5 119.53 46.12 118.58 39.37 107.28"/>
  <polygon points="28.8 123.03 28.17 123.97 28.76 124.95 29.94 124.95 28.8 123.03"/>
  <polygon points="72.99 57.63 71.81 57.63 78.49 68.83 78.67 68.56 78.67 67.15 72.99 57.63"/>
  <polygon points="78.67 57.97 78.67 57.63 78.46 57.63 78.67 57.97"/>
  <polygon points="73.08 24.3 71.89 24.3 78.05 34.63 78.67 34.63 78.67 33.67 73.08 24.3"/>
  <polygon points="78.67 24.5 78.67 24.3 78.55 24.3 78.67 24.5"/>
  <polygon points="35.85 112.53 35.22 113.47 42.03 124.87 42.64 123.92 35.85 112.53"/>
  <polygon points="34.09 115.16 33.46 116.09 38.74 124.95 39.93 124.95 34.09 115.16"/>
  <polygon points="37.61 109.91 36.99 110.84 43.76 122.2 44.38 121.25 37.61 109.91"/>
  <polygon points="32.33 117.78 31.7 118.72 35.42 124.95 36.6 124.95 32.33 117.78"/>
  <polygon points="30.56 120.41 29.94 121.34 32.09 124.95 33.27 124.95 30.56 120.41"/>
  <polygon points="53.47 86.28 52.85 87.22 59.39 98.19 60.01 97.24 53.47 86.28"/>
  <polygon points="76.32 57.63 75.14 57.63 78.67 63.55 78.67 61.57 76.32 57.63"/>
  <polygon points="58.76 78.41 58.13 79.34 64.6 90.18 65.22 89.23 58.76 78.41"/>
  <path d="M63.39,37.95c.23-.27.48-.52.73-.76l-5.68-9.51c-.3.17-.58.36-.86.54l5.8,9.73Z"/>
  <path d="M61.72,40.72c.09-.2.16-.41.25-.6.09-.18.19-.32.28-.49l-6.17-10.34c-.27.22-.53.45-.78.68l6.42,10.75Z"/>
  <path d="M60.77,44.71c.05-.56.12-1.1.22-1.62l-7.03-11.78c-.24.27-.47.55-.69.83l7.5,12.57Z"/>
  <path d="M69.6,57.53c-.45-.06-.9-.14-1.33-.25l8.49,14.22.62-.95-7.77-13.03Z"/>
  <path d="M69.78,24.36c-.38.02-.76.05-1.13.08l6.08,10.19h1.18l-6.13-10.27Z"/>
  <polygon points="76.4 24.3 75.22 24.3 78.67 30.08 78.67 28.1 76.4 24.3"/>
  <path d="M63.73,25.37c-.33.1-.66.21-.99.33l5.54,9.29c.35-.09.7-.14,1.06-.2l-5.61-9.41Z"/>
  <path d="M66.66,24.7c-.36.06-.71.13-1.06.2l5.8,9.73h1.18l-5.92-9.93Z"/>
  <path d="M60.08,26.82l5.53,9.26s.05-.03.07-.05c.27-.16.56-.28.84-.41l-5.52-9.25c-.31.14-.61.29-.92.45Z"/>
  <path d="M49.42,40.43c-.11.49-.21.99-.29,1.49l14.91,24.98c.46.13.92.24,1.39.34l-16-26.82Z"/>
  <path d="M59.67,65.14c.53.28,1.07.54,1.62.78l-12.48-20.93c-.01.36-.03.72-.03,1.08,0,.3.02.59.02.89l10.83,18.15s.03.02.04.02Z"/>
  <polygon points="60.52 75.78 59.89 76.72 66.34 87.51 66.95 86.56 60.52 75.78"/>
  <path d="M52.96,59.51c.92,1.21,1.95,2.29,3.13,3.26l-6.74-11.29c.34,1.55.82,3.03,1.46,4.44l2.15,3.6Z"/>
  <path d="M65.35,55.99c-1.4-.93-2.56-2.24-3.38-3.85-.49-1.05-.84-2.28-1.05-3.58l-8.8-14.75c-.18.29-.36.57-.52.87-.02.04-.04.09-.07.13l23.49,39.37.62-.95-10.28-17.23Z"/>
  <path d="M50.58,36.81c-.17.4-.32.8-.46,1.21l23.16,38.82.62-.95-23.31-39.08Z"/>
  <polygon points="65.81 67.91 65.18 68.84 71.54 79.51 72.16 78.56 65.81 67.91"/>
  <polygon points="62.28 73.16 61.66 74.09 68.07 84.84 68.69 83.89 62.28 73.16"/>
  <polygon points="64.05 70.53 63.42 71.46 69.81 82.18 70.43 81.23 64.05 70.53"/>
</svg>