<?xml version="1.0" encoding="UTF-8"?>
<svg id="_圖層_1" data-name="圖層 1" xmlns="http://www.w3.org/2000/svg" viewBox="0 0 1080 1080">
  <defs>
    <style>
      .cls-1 {
        fill: #fff;
      }
    </style>
  </defs>
  <path class="cls-1" d="M867.07,1032.61c-3.68,0-7.32-1.35-10.16-3.96l-322.77-296.91H149.7c-40.64,0-73.71-30.28-73.71-67.5V172.16c0-37.22,33.06-67.5,73.71-67.5h780.6c40.64,0,73.71,30.28,73.71,67.5v492.08c0,37.22-33.06,67.5-73.71,67.5h-95.71l47.28,283.4c1.05,6.32-2.02,12.61-7.65,15.66-2.24,1.21-4.7,1.81-7.14,1.81ZM149.7,134.66c-24.1,0-43.71,16.82-43.71,37.5v492.08c0,20.68,19.61,37.5,43.71,37.5h390.3c3.76,0,7.39,1.41,10.16,3.96l294.93,271.31-43.01-257.8c-.73-4.35.5-8.8,3.35-12.16,2.85-3.37,7.04-5.31,11.45-5.31h113.42c24.1,0,43.71-16.82,43.71-37.5V172.16c0-20.68-19.61-37.5-43.71-37.5H149.7Z"/>
  <path class="cls-1" d="M217.86,594.13c-.24,0-.47,0-.71,0-8.28-.02-14.99-6.74-14.97-15.03.02-8.27,6.73-14.97,15-14.97.22,0,.45,0,.67,0,90.33,0,196.82-36.54,278.3-90.37-25.3-18.44-46.46-41.03-59.69-68.7-22.93-47.97-16.83-100.33,16.73-143.66,15.45-19.95,36.23-36.65,58.5-47.02,23.6-10.99,47.42-14.58,68.9-10.38,33.08,6.47,57.12,30.87,67.7,68.7,11.88,42.49-.58,89.6-36.03,136.23-16.52,21.73-37.6,42.88-62.28,62.71,35.21,17.95,74.78,29.94,109.51,37.86,87.1,19.86,171.09,20.5,200.43,14.68,8.13-1.61,16.02,3.67,17.63,11.79s-3.67,16.02-11.79,17.63c-32.81,6.51-120.57,6.21-212.94-14.86-40.93-9.34-88.16-24.13-129.2-47.38-25.16,17.57-53.16,33.78-83.23,48.06-74.31,35.28-153.3,54.7-222.52,54.7ZM562.9,232.33c-29.19,0-63.62,18.54-86.01,47.44-26.37,34.04-31.24,74.99-13.38,112.35,12.29,25.71,33.28,46.5,58.52,63.3,26.27-19.98,48.95-41.79,66.32-64.64,20.6-27.1,42.71-68.18,31.02-110-7.58-27.11-22.57-43.04-44.57-47.34-3.84-.75-7.83-1.12-11.91-1.12Z"/>
</svg>