<?xml version="1.0" encoding="UTF-8"?>
<svg id="_圖層_1" data-name="圖層 1" xmlns="http://www.w3.org/2000/svg" viewBox="0 0 1080 1080">
  <defs>
    <style>
      .cls-1 {
        fill: #fff;
      }
    </style>
  </defs>
  <path class="cls-1" d="M989.22,791.14H90.78c-7.18,0-13-5.82-13-13v-491.86c0-7.18,5.82-13,13-13h898.44c7.18,0,13,5.82,13,13v491.86c0,7.18-5.82,13-13,13ZM103.78,765.14h872.44v-465.86H103.78v465.86Z"/>
  <path class="cls-1" d="M540,923.83c-7.18,0-13-5.82-13-13v-119.2c0-7.18,5.82-13,13-13s13,5.82,13,13v119.2c0,7.18-5.82,13-13,13Z"/>
  <path class="cls-1" d="M540,1016.6c-32.75,0-59.39-26.64-59.39-59.39s26.64-59.39,59.39-59.39,59.39,26.64,59.39,59.39-26.64,59.39-59.39,59.39ZM540,923.83c-18.41,0-33.39,14.98-33.39,33.39s14.98,33.39,33.39,33.39,33.39-14.98,33.39-33.39-14.98-33.39-33.39-33.39Z"/>
  <path class="cls-1" d="M1051.41,146.66H28.59c-7.18,0-13-5.82-13-13s5.82-13,13-13h1022.83c7.18,0,13,5.82,13,13s-5.82,13-13,13Z"/>
</svg>