<?xml version="1.0" encoding="UTF-8"?>
<svg id="_圖層_1" data-name="圖層 1" xmlns="http://www.w3.org/2000/svg" viewBox="0 0 1080 1080">
  <defs>
    <style>
      .cls-1 {
        fill: #fff;
      }
    </style>
  </defs>
  <path class="cls-1" d="M391.56,869.28H43.01c-8.28,0-15-6.72-15-15V303.35c0-8.28,6.72-15,15-15s15,6.72,15,15v535.93h333.55c8.28,0,15,6.72,15,15s-6.72,15-15,15Z"/>
  <path class="cls-1" d="M618.37,248.39c-8.28,0-15-6.72-15-15V75.45h-317.46c-8.28,0-15-6.72-15-15s6.72-15,15-15h332.46c8.28,0,15,6.72,15,15v172.94c0,8.28-6.72,15-15,15Z"/>
  <path class="cls-1" d="M285.91,318.35H43.01c-6.07,0-11.54-3.65-13.86-9.26-2.32-5.61-1.04-12.06,3.25-16.35L275.3,49.84c4.29-4.29,10.75-5.57,16.35-3.25,5.61,2.32,9.26,7.79,9.26,13.86v242.9c0,8.28-6.72,15-15,15ZM79.22,288.35h191.69V96.66l-191.69,191.69Z"/>
  <path class="cls-1" d="M1036.99,1038.55H461.63c-8.28,0-15-6.72-15-15V472.62c0-8.28,6.72-15,15-15s15,6.72,15,15v535.93h545.36V244.72h-317.46c-8.28,0-15-6.72-15-15s6.72-15,15-15h332.46c8.28,0,15,6.72,15,15v793.83c0,8.28-6.72,15-15,15Z"/>
  <path class="cls-1" d="M704.53,487.62h-242.9c-6.07,0-11.54-3.65-13.86-9.26-2.32-5.61-1.04-12.06,3.25-16.35l242.9-242.9c4.29-4.29,10.75-5.57,16.35-3.25,5.61,2.32,9.26,7.79,9.26,13.86v242.9c0,8.28-6.72,15-15,15ZM497.85,457.62h191.69v-191.69l-191.69,191.69Z"/>
</svg>