<?xml version="1.0" encoding="UTF-8"?>
<svg id="_圖層_1" data-name="圖層 1" xmlns="http://www.w3.org/2000/svg" viewBox="0 0 1080 1080">
  <defs>
    <style>
      .cls-1 {
        fill: #fff;
      }
    </style>
  </defs>
  <path class="cls-1" d="M446.05,937.56c-10.8,0-21.67-1.47-32.37-4.44l-317.6-88.16c-7.98-2.22-12.66-10.48-10.44-18.47,2.22-7.98,10.48-12.66,18.47-10.44l317.6,88.16c23.24,6.45,47.61,3.47,68.61-8.41,21-11.87,36.12-31.21,42.57-54.46,13.32-47.98-14.88-97.85-62.86-111.17l-293.01-81.34c-4.99-1.39-8.92-5.25-10.38-10.22l-84.69-288c-2.34-7.95,2.21-16.29,10.16-18.62,7.95-2.34,16.29,2.21,18.62,10.16l82.34,280.01,284.98,79.11c63.92,17.75,101.49,84.18,83.74,148.11-8.6,30.96-28.73,56.73-56.71,72.54-18.31,10.36-38.55,15.64-59.03,15.64Z"/>
  <path class="cls-1" d="M624.08,937.5c-17.55,0-35.03-3.84-51.13-11.41-4.42-2.08-7.55-6.17-8.39-10.98-.84-4.81.7-9.72,4.15-13.18,14.41-14.46,24.95-32.65,30.48-52.58,8.59-30.94,4.62-63.38-11.19-91.34-5.31-9.4-11.82-18.01-19.33-25.6-3.43-3.47-4.96-8.38-4.11-13.18.86-4.8,3.99-8.89,8.41-10.95,6.1-2.85,12.47-5.21,18.94-7.01l284.99-79.11,92.4-314.19c2.34-7.95,10.68-12.49,18.62-10.16,7.95,2.34,12.5,10.67,10.16,18.62l-94.75,322.19c-1.46,4.97-5.39,8.84-10.38,10.22l-288.1,79.98c3.35,4.62,6.45,9.44,9.27,14.44,19.75,34.93,24.72,75.46,13.98,114.13-4.82,17.35-12.69,33.66-23.12,48.08,14.21,3.08,29.07,2.7,43.27-1.25l323.1-89.69c7.98-2.22,16.25,2.46,18.47,10.44,2.22,7.98-2.46,16.25-10.44,18.47l-323.1,89.69c-10.56,2.93-21.38,4.38-32.18,4.38Z"/>
  <path class="cls-1" d="M522.04,399.16c-4.01,0-7.86-1.61-10.69-4.47l-156.12-158.52c-5.81-5.9-5.74-15.4.16-21.21s15.4-5.74,21.21.16l144.98,147.22L781.62,75.69c5.57-6.14,15.05-6.6,21.19-1.03,6.14,5.57,6.6,15.05,1.03,21.19l-270.69,298.39c-2.77,3.06-6.68,4.83-10.8,4.92-.1,0-.21,0-.31,0Z"/>
</svg>