<?xml version="1.0" encoding="UTF-8"?>
<svg id="_圖層_1" data-name="圖層 1" xmlns="http://www.w3.org/2000/svg" viewBox="0 0 1080 1080">
  <defs>
    <style>
      .cls-1 {
        fill: #fff;
      }
    </style>
  </defs>
  <path class="cls-1" d="M774.5,912.47h-326.42c-7.18,0-13-5.82-13-13s5.82-13,13-13h313.42v-19.85h-313.42c-7.18,0-13-5.82-13-13v-45.85c0-7.18,5.82-13,13-13h313.42v-19.85h-313.42c-7.18,0-13-5.82-13-13v-45.85c0-7.18,5.82-13,13-13h223.34c7.18,0,13,5.82,13,13s-5.82,13-13,13h-210.34v19.85h313.42c7.18,0,13,5.82,13,13v45.85c0,7.18-5.82,13-13,13h-313.42v19.85h313.42c7.18,0,13,5.82,13,13v45.85c0,7.18-5.82,13-13,13Z"/>
  <path class="cls-1" d="M548.01,1079.02c-2.19,0-4.38-.48-6.41-1.44l-466.33-220.45c-5.24-2.48-8.59-7.76-8.59-13.56V205.83c0-6.25,3.88-11.85,9.73-14.04L535.06,19.8c5.12-1.92,10.88-.9,15.04,2.66l460.71,395.4c3.32,2.85,5.23,7.01,5.23,11.38v420.23c0,5.8-3.34,11.08-8.58,13.56l-453.03,214.54c-2.03.96-4.23,1.44-6.42,1.44ZM96.69,834.06l451.32,213.36,438.04-207.44v-403.84L537.29,51,96.69,216.23v617.83Z"/>
  <g>
    <path class="cls-1" d="M609.74,647.52c-4.22,0-8.27-2.24-10.45-6.1l-39.81-70.42c-3.26-5.77-1.23-13.09,4.54-16.35,5.77-3.26,13.09-1.23,16.35,4.54l34.77,61.52,70.78-26.24-13.74-69.32c-1.29-6.5,2.94-12.82,9.44-14.1,6.5-1.29,12.82,2.94,14.1,9.44l15.72,79.35c1.15,5.78-2.07,11.54-7.6,13.58l-89.96,33.35c-1.37.51-2.78.75-4.17.75Z"/>
    <path class="cls-1" d="M569.93,577.1c-1.94,0-3.87-.47-5.62-1.4-3.02-1.6-5.22-4.41-6.04-7.73l-27.11-110.05c-1.46-5.92,1.76-12,7.48-14.12l89.96-33.35c5.72-2.12,12.12.39,14.88,5.83l51.19,101.12c1.54,3.05,1.71,6.62.47,9.8-1.25,3.18-3.79,5.68-7,6.87l-114.04,42.28c-1.35.5-2.76.75-4.17.75ZM557.04,462.58l21.33,86.6,88.82-32.93-40.28-79.57-69.87,25.91Z"/>
    <path class="cls-1" d="M675.21,678.42c-4.88,0-9.46-2.99-11.25-7.83l-12.92-34.85c-2.3-6.21.87-13.12,7.08-15.42,6.21-2.3,13.12.86,15.42,7.08l12.92,34.85c2.3,6.21-.87,13.12-7.08,15.42-1.38.51-2.78.75-4.17.75Z"/>
    <path class="cls-1" d="M565,455.2c-35.46,0-65.55-27.44-68.24-63.36-2.83-37.66,25.51-70.59,63.17-73.42,37.66-2.82,70.59,25.51,73.42,63.17s-25.51,70.59-63.17,73.42c-1.73.13-3.46.19-5.17.19ZM565.08,342.23c-1.11,0-2.23.04-3.36.13-24.46,1.84-42.87,23.23-41.03,47.69,1.84,24.46,23.24,42.86,47.69,41.03,24.46-1.84,42.87-23.23,41.03-47.69-1.75-23.33-21.3-41.16-44.33-41.16Z"/>
    <path class="cls-1" d="M475.72,446.21c-1.27,0-2.57-.2-3.84-.64l-302.4-102.2c-6.28-2.12-9.65-8.93-7.53-15.21,2.12-6.28,8.93-9.65,15.21-7.53l291.03,98.36,40.71-120.47-235.85-79.71c-6.28-2.12-9.65-8.93-7.53-15.21s8.93-9.65,15.21-7.53l247.22,83.55c3.01,1.02,5.5,3.19,6.91,6.05s1.63,6.15.61,9.16l-48.4,143.21c-1.69,5-6.36,8.16-11.37,8.16Z"/>
  </g>
</svg>