<?xml version="1.0" encoding="UTF-8"?>
<svg id="_圖層_1" data-name="圖層 1" xmlns="http://www.w3.org/2000/svg" viewBox="0 0 1080 1080">
  <defs>
    <style>
      .cls-1 {
        fill: #fff;
      }
    </style>
  </defs>
  <path class="cls-1" d="M477.22,1072.01H175.03c-5.11,0-9.88-2.61-12.63-6.91-31.39-49.02-62.54-133.26-85.48-231.12-23.97-102.25-37.17-210.12-37.17-303.75s55.79-141.49,100.63-177.01c40.39-32,69.57-55.12,60.96-105.47-13.64-79.75-21.35-185.52-21.43-186.58-.3-4.15,1.14-8.25,3.98-11.3,2.84-3.05,6.82-4.78,10.98-4.78h262.54c4.17,0,8.14,1.73,10.98,4.78,2.84,3.05,4.28,7.14,3.98,11.3-.08,1.06-7.79,106.83-21.43,186.58-8.61,50.35,20.57,73.47,60.96,105.47,44.83,35.52,100.63,79.72,100.63,177.01s-13.2,201.51-37.17,303.75c-22.94,97.85-54.1,182.09-85.48,231.12-2.76,4.31-7.52,6.91-12.63,6.91ZM183.38,1042.01h285.48c28.19-47.17,56.14-124.76,77.27-214.88,23.46-100.07,36.38-205.51,36.38-296.91,0-82.78-45.38-118.73-89.26-153.5-41.06-32.53-83.51-66.16-71.9-134.04,10.25-59.98,17.12-135.19,19.81-167.61h-230.07c2.69,32.42,9.56,107.65,19.81,167.61,11.61,67.88-30.85,101.51-71.9,134.04-43.88,34.77-89.26,70.72-89.26,153.5,0,91.39,12.92,196.84,36.38,296.91,21.13,90.12,49.08,167.71,77.27,214.88Z"/>
  <path class="cls-1" d="M960.89,1072.01h-200.63c-5.11,0-9.88-2.61-12.63-6.91-45.34-70.82-82.23-231.34-82.23-357.82,0-67.03,38.1-97.21,68.72-121.47,28.81-22.83,43.61-36.09,38.63-65.22-9.1-53.19-14.08-121.48-14.29-124.36-.3-4.15,1.14-8.25,3.98-11.3,2.84-3.05,6.82-4.78,10.98-4.78h174.3c4.17,0,8.14,1.73,10.98,4.78,2.84,3.05,4.28,7.14,3.98,11.3-.21,2.88-5.19,71.17-14.29,124.36-4.98,29.12,9.82,42.39,38.63,65.22,30.62,24.26,68.72,54.44,68.72,121.47,0,126.48-36.89,287-82.23,357.82-2.76,4.31-7.52,6.91-12.63,6.91ZM768.7,1042.01h183.76c17.96-31.07,35.72-80.95,49.27-138.77,15.49-66.07,24.02-135.67,24.02-195.97,0-52.52-27.86-74.59-57.35-97.95-14.36-11.37-27.92-22.12-37.69-36.26-11.72-16.96-15.6-35.78-11.89-57.53,6.25-36.56,10.6-81.77,12.63-105.38h-141.77c2.03,23.61,6.38,68.82,12.63,105.38,3.72,21.75-.17,40.57-11.89,57.53-9.77,14.15-23.33,24.89-37.69,36.26-29.49,23.36-57.35,45.43-57.35,97.95,0,60.3,8.53,129.9,24.02,195.97,13.55,57.82,31.31,107.7,49.27,138.77Z"/>
  <path class="cls-1" d="M148.65,618.48c-8.1,0-14.77-6.45-14.99-14.6-.89-33.03,9.08-73.46,27.34-110.92,14.45-29.64,40.81-71.36,84.35-101.81,6.79-4.75,16.14-3.1,20.89,3.69s3.1,16.14-3.69,20.89c-63.86,44.67-100.43,130.34-98.9,187.35.22,8.28-6.31,15.18-14.59,15.4-.14,0-.27,0-.41,0Z"/>
  <path class="cls-1" d="M745.74,753.03c-8.1,0-14.77-6.45-14.99-14.6-.9-33.55,19.22-83.96,58.29-111.29,6.79-4.75,16.14-3.1,20.89,3.69,4.75,6.79,3.1,16.14-3.69,20.89-28.99,20.28-46.19,60.38-45.5,85.9.22,8.28-6.31,15.18-14.59,15.4-.14,0-.27,0-.41,0Z"/>
</svg>