<?xml version="1.0" encoding="UTF-8"?>
<svg id="_圖層_1" data-name="圖層 1" xmlns="http://www.w3.org/2000/svg" viewBox="0 0 1080 1080">
  <defs>
    <style>
      .cls-1 {
        fill: #fff;
      }
    </style>
  </defs>
  <path class="cls-1" d="M722.25,1040.2c-4.89,0-9.8-.04-14.76-.12-88.48-1.39-177.05-15.94-270.79-44.48-15.76-4.8-31.7-13.42-30.41-40.95.91-19.39.74-38.54.54-60.71-.09-9.72-.18-19.76-.18-30.44,0-.36.01-.72.04-1.07.79-11.06.54-23.18.27-36.02-.49-23.44-1.05-50,4.99-76.51,11.25-49.43,39.16-94.34,78.59-126.46,39.73-32.36,89.33-50.18,139.68-50.18.28,0,.55,0,.83,0,16.34,0,33.07-.46,49.26-.9,43.56-1.19,88.61-2.42,133.23,4.84,51.54,8.39,98.91,35.35,133.38,75.92,34.35,40.43,53.5,91.54,53.92,143.9.16,19.89.08,40.07,0,59.59-.13,31.2-.27,63.46.6,95.05.75,27.26-14.48,37.31-29.48,43.55-72.71,30.23-154.52,44.98-249.69,44.98ZM436.66,864.03c0,10.35.09,20.16.18,29.65.19,21.68.38,42.16-.57,62.38-.21,4.54.38,6.55.76,7.03.32.39,1.87,1.83,8.42,3.82,91.02,27.72,176.89,41.84,262.52,43.18,97.31,1.52,179.9-12.4,252.47-42.57,9.82-4.08,11.26-6.05,11.01-15.02-.88-32.06-.74-64.56-.61-96,.08-19.43.17-39.51,0-59.22-.75-93.66-70.45-175.54-162.11-190.45-41.82-6.81-85.43-5.62-127.59-4.47-16.61.45-33.79.92-50.77.91h-.14c-89.33,0-168.8,64.44-189.02,153.29-5.22,22.92-4.72,46.46-4.25,69.23.28,13.35.54,25.96-.3,38.24Z"/>
  <path class="cls-1" d="M326.32,848.04c-3.64,0-7.28-.3-10.8-.69-76.79-8.66-146.03-22.92-211.67-43.62l-1.18-.37c-6.22-1.92-20.78-6.42-20.28-24.05.68-23.59-.07-47.87-.78-71.34-1.38-45.11-2.81-91.75,5.51-137.6,19.14-105.45,105.45-178.9,214.76-182.78,34.74-1.23,69.97-.92,104.04-.62,12.97.11,26.38.23,39.54.26.78.01,1.56-.01,2.32-.03,7.47-.15,24.96-.51,29.18,22.45,12.19,66.22,14.32,70.9,57.14,125.12,2.58,3.27,3.44,7.57,2.31,11.58-1.13,4.01-4.11,7.23-8.02,8.67-42.87,15.81-76.48,36.89-102.74,64.45-47.94,50.3-70.17,112.96-66.06,186.24.67,12.04.11,25.55-9.22,34.37-6.59,6.23-15.27,7.95-24.04,7.95ZM108.44,777.91c.65.21,1.34.43,1.91.6l1.32.41c64.02,20.19,131.66,34.12,206.77,42.58,10.9,1.23,13.69-.1,14.07-.32.24-.36,1.74-3.08,1.13-14.01-4.52-80.74,20.11-149.92,73.2-205.63,25.56-26.82,57.11-47.99,96.09-64.41-35.29-45.59-39.72-58.57-51.53-122.77-.09-.47-.17-.86-.26-1.18-.9-.01-1.99,0-2.83.02-.96.02-1.95.03-2.92.04-13.25-.03-26.7-.15-39.71-.26-33.79-.3-68.72-.61-102.89.6-96.8,3.43-173.19,68.31-190.1,161.44-7.83,43.14-6.45,88.39-5.1,132.16.71,23.15,1.44,47.07.84,70.74ZM108.38,780.22h0s0,0,0,0Z"/>
  <path class="cls-1" d="M703.47,582.25c-.21,0-.42,0-.63,0-47.67-.17-92.75-19.13-126.96-53.41-34.2-34.27-53.11-79.43-53.26-127.16-.15-48.41,18.81-94.09,53.41-128.64,34.48-34.44,79.95-53.29,128.15-53.08,98.83.43,179.72,81.37,180.33,180.42.29,47.99-18.6,93.53-53.2,128.22-34.52,34.61-79.9,53.65-127.83,53.65ZM703.37,249.96c-39.85,0-77.53,15.72-106.15,44.31-28.89,28.86-44.73,66.97-44.61,107.32.26,82.79,67.7,150.38,150.33,150.66.17,0,.35,0,.52,0,39.9,0,77.74-15.91,106.59-44.84,28.9-28.98,44.69-66.93,44.44-106.85-.5-82.68-68-150.24-150.46-150.6-.22,0-.45,0-.67,0Z"/>
  <path class="cls-1" d="M377.11,402.92c-44.89,0-89.1-17.04-123.34-49.53-25.84-24.53-43.51-56.09-51.08-91.27-7.57-35.16-4.48-71.27,8.93-104.43,27.83-68.79,91.27-111.67,165.55-111.9h0c.18,0,.37,0,.56,0,46.16,0,90.05,17.68,123.65,49.82,33.71,32.25,53.29,75.44,55.14,121.61.56,14.04-4.33,25.11-15.4,34.84-32.51,28.55-52.75,63.33-60.16,103.37-3.62,19.57-18.44,26.24-28.25,30.66l-1.61.73c-23.8,10.82-49,16.1-73.98,16.1ZM377.26,71.8h0c-63.51.2-117.74,36.84-141.53,95.65-23.25,57.47-8.81,124.62,35.94,167.09,45.57,43.25,111.78,54.49,168.66,28.62l1.69-.77c9.74-4.39,12.33-6.11,13.36-11.68,8.5-45.92,31.57-85.68,68.57-118.17,5.23-4.6,6.83-8.06,6.58-14.27-3.23-80.85-71.74-146.47-152.81-146.47-.15,0-.31,0-.46,0Z"/>
</svg>