<?xml version="1.0" encoding="UTF-8"?>
<svg id="_圖層_1" data-name="圖層 1" xmlns="http://www.w3.org/2000/svg" viewBox="0 0 1080 1080">
  <defs>
    <style>
      .cls-1 {
        fill: #fff;
      }

      .cls-2 {
        fill: none;
      }
    </style>
  </defs>
  <rect class="cls-1" x="344.1" y="480.6" width="381.89" height="53.88" transform="translate(-201.45 469.56) rotate(-40.54)"/>
  <polygon class="cls-1" points="520.94 715.01 432.17 611.22 653.42 422 742.19 525.8 719.39 545.3 650.12 464.3 474.47 614.52 543.74 695.52 520.94 715.01"/>
  <path class="cls-1" d="M994.18,891.54c-3.66-12.9-2.41-26.47,2.13-39.09,11.72-32.55,17.12-67.91,14.18-104.64-12.44-155.81-163.55-267.33-322.5-223.08-96.65,26.91-169.47,112.26-180.9,211.94-11.07,96.51,30.82,181.51,98.76,232.88,10.14,7.67,22.82,39.02,26.29,51.25l2.93,10.34h397.49l-38.39-139.6ZM658.36,1013.91c-4.74-16.7-19.88-52.27-34.86-63.6-64.02-48.42-96.73-125.59-87.46-206.42,10.12-88.24,74.39-163.54,159.91-187.35,14.73-4.11,29.78-6.79,44.66-7.98,123.13-9.83,231.27,82.33,241.1,205.43,2.5,31.34-1.71,62.46-12.55,92.52-6.56,18.24-7.44,36.85-2.63,53.83l25.54,90.06,6.33,26.16h-339.29l-.75-2.65Z"/>
  <g>
    <path class="cls-1" d="M789.22,779.68c8.89-4.02,17.14-8.49,20.96-19.21,2.36-6.69,2.03-14.23-2.01-22.16-4.04-7.93-10.08-12.89-17.11-15.34-11.28-3.91-20.15-.66-29.04,3.36l-55.71,25.15c-8.89,4.02-17.14,8.49-20.96,19.21-2.37,6.69-2.03,14.23,2.01,22.16,4.04,7.93,10.08,12.89,17.11,15.34,11.28,3.91,20.15.66,29.04-3.36l55.71-25.15ZM711.35,792.14c-2.7-.84-5.61-2.91-7.55-6.72-1.94-3.81-1.83-7.24-.84-9.75,1.71-4.34,5.08-6.23,8.6-7.82l60.74-27.42c3.52-1.59,7.2-2.88,11.87-1.42,2.7.84,5.61,2.91,7.56,6.72,1.94,3.81,1.83,7.24.84,9.75-1.71,4.33-5.08,6.23-8.6,7.82l-60.74,27.42c-3.52,1.59-7.2,2.88-11.87,1.42Z"/>
    <path class="cls-1" d="M769.95,872.21l-7.78-15.24-4.2,1.89c-5.7,2.58-9.09,2.42-10.65,2.18-3.62-.62-6.67-3.36-8.38-6.72-2.18-4.27-.9-7.84.23-9.67,2.01-3.34,5.53-4.94,9.39-6.68l57.89-26.14c4.03-1.82,8.3-3.56,12.9-2.64,2.79.61,5.88,2.22,7.9,6.18,2.49,4.88.63,8.53-.15,9.82-1.48,2.36-4.36,4.41-6.71,5.47l-6.71,3.03,7.54,14.79,8.05-3.64c8.22-3.71,13.71-9.94,15.96-15.65,2.53-6.77,1.41-15.45-1.86-21.85-2.88-5.64-8.64-11.67-15.74-14.27-10.04-3.9-19.23-.88-26.95,2.6l-60.91,27.5c-6.04,2.73-14.17,6.21-18.42,14.88-2.65,5.32-4.23,13.16.9,23.22,5.37,10.52,12.58,14.95,18.07,16.41,4.59,1.3,13.17,1.93,24.74-3.29l4.87-2.2Z"/>
    <path class="cls-1" d="M877.98,875.19c-4.04-7.93-10.08-12.89-17.11-15.34-11.28-3.91-20.15-.66-29.04,3.36l-55.71,25.15c-8.89,4.02-17.14,8.49-20.96,19.21-2.37,6.69-2.03,14.23,2.01,22.16,4.04,7.93,10.08,12.89,17.12,15.34,11.28,3.91,20.15.66,29.04-3.36l55.71-25.15c8.89-4.02,17.14-8.49,20.96-19.21,2.36-6.7,2.03-14.23-2.01-22.16ZM862.38,892.36c-1.71,4.33-5.08,6.23-8.6,7.82l-60.74,27.42c-3.52,1.59-7.2,2.88-11.87,1.42-2.7-.84-5.61-2.91-7.55-6.72-1.94-3.81-1.83-7.24-.84-9.75,1.71-4.34,5.08-6.23,8.6-7.82l60.74-27.42c3.52-1.59,7.2-2.88,11.87-1.42,2.7.84,5.61,2.91,7.55,6.72,1.94,3.81,1.83,7.24.84,9.75Z"/>
    <polygon class="cls-1" points="772.97 711.81 788.91 704.61 761.85 651.57 745.91 658.76 755.55 677.67 654.04 723.5 661.82 738.74 763.33 692.91 772.97 711.81"/>
  </g>
  <g>
    <polygon class="cls-1" points="168.66 394.26 149.35 389.06 149.43 388.77 168.72 394.04 168.66 394.26"/>
    <path class="cls-1" d="M164.77,394.34s-.03.1-.05.15c.02-.05.03-.1.05-.15Z"/>
    <polygon class="cls-1" points="160.38 429.27 140.78 425.33 140.83 425.07 160.44 428.99 160.38 429.27"/>
    <polygon class="cls-1" points="163.41 415.14 143.91 410.71 143.94 410.55 163.44 414.98 163.41 415.14"/>
    <path class="cls-1" d="M180.4,352.68s-.04.1-.06.14c.02-.05.04-.1.06-.14Z"/>
    <path class="cls-1" d="M168.85,382.22c-.03.08-.06.16-.08.24.03-.08.06-.16.08-.24Z"/>
    <polygon class="cls-1" points="156.66 450.37 136.9 447.27 156.7 450.1 156.66 450.37"/>
    <path class="cls-1" d="M188.33,335.3c-.04.09-.09.18-.13.27.04-.09.09-.18.13-.27Z"/>
    <path class="cls-1" d="M175.53,364.4c-.03.08-.06.15-.09.23.03-.08.06-.15.09-.23Z"/>
    <path class="cls-1" d="M828.31,178.39C671.92,41.67,452.78,19.33,285.83,149.05c-30.17,16.18-58.75,35.55-85.02,58.01C27.93,354.91,14.77,585.96,131.99,771.85c18.49,29.31,57.73,36.32,81.64,15.87l30.44-26.03s0,0,0,0l587.18-502.16c23.34-19.96,22.53-58.87-2.94-81.14ZM804.48,228.26L217.3,730.41c-2.16,1.84-5.54,1.6-6.9,1.39-2.14-.32-7.51-1.73-11.21-7.58-2.15-3.41-4.23-6.84-6.25-10.3-2.03,1.75-4.15,3.57-6.37,5.47-56.11,47.98-101.23-54.1-66.7-96.19-28.37-11.01-71.7-65.65-46.13-116.71,13.89-27.74,27.09-30.56,35.06-28.08-5.11-5.68-12.98-15.87-24.22-33.25-18.61-28.78,26.25-121.39,109.36-121.09,25.7-49.78,60.45-94.62,102.36-130.47,196.48-168.03,427.12-52.27,504.91,15.78,5.21,4.56,5.75,10.07,5.75,12.25,0,1.37-.29,4.75-2.48,6.63Z"/>
    <path class="cls-2" d="M144.48,579.47s0,0,0,0c0,0,0,0,0,0Z"/>
    <polygon class="cls-1" points="131.02 521.46 131.02 521.21 151.02 521.42 131.02 521.46"/>
    <polygon class="cls-1" points="152.5 485.87 132.56 484.29 132.59 484.02 152.51 485.74 152.5 485.87"/>
    <polygon class="cls-1" points="154.67 464.6 134.84 461.98 154.7 464.36 154.67 464.6"/>
    <path class="cls-1" d="M187.01,339.62l-18.57-7.42c1.81-4.53,3.7-9.08,5.62-13.54,0-.02.02-.04.03-.06l18.37,7.92s-.01.03-.02.05c-1.84,4.28-3.67,8.67-5.41,13.05Z"/>
    <path class="cls-1" d="M179.45,359.77l-18.87-6.63c2.43-6.91,5.04-13.86,7.75-20.67l18.58,7.4c-2.61,6.55-5.12,13.25-7.46,19.9Z"/>
    <path class="cls-1" d="M134.55,580.7c-2.41-19.41-3.6-39.35-3.53-59.28l20,.07c-.06,19.03,1.07,38.08,3.36,56.61,0,.04.01.09.02.13,0,0,0,0,0,0l-19.85,2.47Z"/>
    <path class="cls-1" d="M192.52,326.36l-18.36-7.93c.12-.27.23-.54.35-.81,2.73-6.3,5.62-12.63,8.59-18.82.08-.16.15-.32.23-.48,0,0,0,0,0,0l18.02,8.67c-2.93,6.09-5.78,12.32-8.47,18.52,0,0,0,0,0,.01,0,.02-.02.04-.03.06,0,.01,0,.02-.01.03,0,.02-.01.03-.02.05-.1.23-.2.45-.29.68Z"/>
    <path class="cls-1" d="M201.49,306.7l-18.02-8.68c2.14-4.43,4.35-8.87,6.58-13.19l17.77,9.18c-2.15,4.16-4.28,8.43-6.34,12.7Z"/>
    <path class="cls-1" d="M189.17,743.99h0c-9.6-16.44-18.04-33.47-25.29-51.04-14.62-35.39-24.45-72.96-29.33-112.25l19.85-2.47c.12.98.25,1.96.38,2.94,7.21,54.98,24.59,106.35,51.67,152.73l-17.27,10.08Z"/>
    <path class="cls-1" d="M174.84,373.48l-19.05-6.1c1.48-4.63,3.06-9.33,4.69-13.97l18.87,6.62c-1.57,4.46-3.08,8.99-4.51,13.44Z"/>
    <path class="cls-1" d="M152.52,485.68l-19.94-1.59c.02-.3.05-.61.07-.91.19-2.27.39-4.55.61-6.83.46-4.77.98-9.55,1.57-14.29l19.85,2.47c-.44,3.52-.84,7.06-1.2,10.59-.36,3.53-.68,7.05-.96,10.56Z"/>
    <path class="cls-1" d="M160.44,428.99l-19.61-3.92c.96-4.81,2-9.66,3.09-14.43l19.5,4.47c-1.05,4.59-2.05,9.26-2.97,13.88Z"/>
    <path class="cls-1" d="M156.69,450.17l-19.76-3.06c1.01-6.51,2.16-13.11,3.43-19.64,0-.02,0-.04.01-.06,0,0,0-.02,0-.03.13-.68.27-1.36.4-2.03l19.62,3.9s-.02.08-.02.11c0,.04-.02.09-.03.13-1.36,6.87-2.59,13.82-3.65,20.68Z"/>
    <path class="cls-1" d="M154.7,464.4l-19.85-2.48c.61-4.86,1.29-9.78,2.04-14.62l19.77,3.05c-.72,4.65-1.38,9.38-1.96,14.05Z"/>
    <path class="cls-1" d="M151.02,521.35l-20-.07v-.04c.04-11.75.53-23.71,1.44-35.58.04-.46.07-.92.11-1.37l19.94,1.59c-.94,11.82-1.44,23.75-1.48,35.48Z"/>
    <path class="cls-1" d="M168.72,394.06l-19.29-5.3c.09-.31.17-.62.26-.94,1.87-6.77,3.91-13.58,6.05-20.27l19.05,6.1c-.1.32-.2.63-.3.95,0,0,0,0,0,.01,0,.02-.01.04-.02.06-1.98,6.25-3.87,12.6-5.61,18.92-.04.15-.08.31-.13.46,0,0,0,0,0,0Z"/>
    <path class="cls-1" d="M163.43,415.05l-19.49-4.47c1.64-7.15,3.46-14.38,5.41-21.51l19.29,5.29c-1.88,6.86-3.63,13.82-5.21,20.7Z"/>
  </g>
</svg>